<?xml version="1.0" encoding="utf-8"?>
<!-- Generator: Adobe Illustrator 25.4.1, SVG Export Plug-In . SVG Version: 6.00 Build 0)  -->
<svg version="1.1" xmlns="http://www.w3.org/2000/svg" xmlns:xlink="http://www.w3.org/1999/xlink" x="0px" y="0px"
	 viewBox="0 0 1920 1080" style="enable-background:new 0 0 1920 1080;" xml:space="preserve">
<style type="text/css">
	.st0{fill-rule:evenodd;clip-rule:evenodd;fill:url(#SVGID_1_);}
	.st1{fill-rule:evenodd;clip-rule:evenodd;fill:url(#SVGID_00000047771485552910246260000013582478887426999189_);}
	.st2{fill-rule:evenodd;clip-rule:evenodd;fill:url(#SVGID_00000176034804411716791310000014628286806631171223_);}
	
		.st3{fill:none;stroke:url(#SVGID_00000035508507160516774300000011590226733982351280_);stroke-width:6.24;stroke-linecap:round;stroke-linejoin:round;}
	.st4{fill:none;stroke:#FFFFFF;stroke-width:6.24;stroke-linecap:round;stroke-linejoin:round;}
	.st5{fill:#68F6F5;}
	.st6{fill:#8637EF;}
	.st7{fill:#213669;}
	.st8{fill:#201F41;}
	.st9{fill:#111C36;}
	.st10{fill:#4EC1D9;}
	.st11{fill:#409FB3;}
	.st12{fill:#5631C4;}
	.st13{fill:#7500E5;}
	.st14{fill:#592BE5;}
	.st15{fill:#DAE3EC;}
	.st16{fill:#849CF4;}
	.st17{fill:#A46CEF;}
	.st18{fill:#EFF3F8;}
	.st19{fill:#FFFFFF;}
	.st20{display:none;fill:#F7FBFC;}
	.st21{display:none;}
	.st22{fill:none;stroke:#DAE3EC;stroke-width:2;stroke-miterlimit:10;stroke-dasharray:12;}
	.st23{fill:#FFCCDE;}
	.st24{fill:none;stroke:#409FB3;stroke-width:4;stroke-miterlimit:10;}
	.st25{opacity:0.27;fill:none;stroke:#849CF4;stroke-width:2;stroke-miterlimit:10;}
	.st26{opacity:0.27;fill:#849CF4;}
	.st27{fill:#C4CCD4;}
	.st28{fill:none;stroke:#4EC1D9;stroke-width:2;stroke-miterlimit:10;}
	.st29{opacity:0.41;fill:#849CF4;}
	.st30{opacity:0.41;}
	.st31{opacity:0.41;fill:none;stroke:#849CF4;stroke-width:5;stroke-miterlimit:10;}
	.st32{fill:none;stroke:#409FB3;stroke-width:2;stroke-miterlimit:10;}
	.st33{fill:#E0E9F2;}
	.st34{fill:#F4F7F9;}
	.st35{fill:#EFF8FE;}
	.st36{display:inline;}
	.st37{display:inline;fill:#213669;}
	.st38{opacity:0.41;fill:#849CF4;enable-background:new    ;}
	.st39{opacity:0.41;fill:#8637EF;enable-background:new    ;}
	.st40{fill:none;stroke:#FFFFFF;stroke-width:2;stroke-miterlimit:10;}
	.st41{opacity:0.31;fill:#FFFFFF;enable-background:new    ;}
	.st42{fill:#B1BDDC;}
	.st43{fill:#364274;}
	.st44{fill:#FFFFFF;stroke:#849CF4;stroke-width:5;stroke-miterlimit:10;}
	.st45{fill:#21272A;}
	.st46{fill:#E3ACC0;}
	.st47{fill:#4A2AAB;}
	.st48{opacity:0.34;}
	.st49{fill:#94A9F5;}
	.st50{fill:none;}
	.st51{opacity:0.5;fill:#FFFFFF;}
	.st52{fill:none;stroke:#DAE3EC;stroke-width:5;stroke-miterlimit:10;}
	.st53{fill:url(#SVGID_00000170991668449195589880000010212287569052313533_);}
	.st54{opacity:0.1;fill:none;stroke:#EFF3F8;stroke-width:1.6187;stroke-miterlimit:10;}
	.st55{opacity:0.5;fill:#849CF4;}
	.st56{fill:none;stroke:#EFF3F8;stroke-width:1.6187;stroke-miterlimit:10;}
	.st57{fill:none;stroke:#DAE3EC;stroke-width:2;stroke-miterlimit:10;}
	.st58{opacity:0.5;fill:none;stroke:#FFFFFF;stroke-width:0.8093;stroke-miterlimit:10;}
	.st59{fill:none;stroke:#FFFFFF;stroke-width:0.8093;stroke-miterlimit:10;}
	.st60{fill:none;stroke:#7500E5;stroke-width:47;stroke-linecap:round;stroke-miterlimit:10;}
	.st61{fill:#47B0C7;}
	.st62{fill:#2C488C;}
	.st63{fill:#55D1EB;}
	.st64{opacity:0.75;fill:#FFFFFF;}
	.st65{opacity:0.5;}
</style>
<g id="Layer_3">
</g>
<g id="Layer_2">
</g>
<g id="Layer_1">
	<g class="st48">
		<path class="st49" d="M1817.2,919.98c-2.99,0-6.42,0-4.5,0h6.85c2.52,0,4.42,0,3.99,0h-6.54
			C1816.07,919.99,1816.99,919.99,1817.2,919.98z"/>
		<path class="st49" d="M1415.75,919.48c0.57,0.02,1.14,0,1.71-0.05C1416.89,919.42,1416.32,919.43,1415.75,919.48z"/>
		<path class="st49" d="M1389.52,919.18h1.55C1390.56,919.16,1390.04,919.16,1389.52,919.18z"/>
		<path class="st49" d="M1569.32,919.72l-4.11-0.07C1564.89,919.72,1567.32,919.7,1569.32,919.72z"/>
		<path class="st49" d="M1637.03,919.64h1.26l1.03-0.06L1637.03,919.64z"/>
		<path class="st49" d="M1688.98,919.7c-0.68,0-1.36,0.05-2.03,0.14c0.66,0,1.52-0.06,2.52-0.07
			C1689.59,919.75,1689.37,919.73,1688.98,919.7z"/>
		<path class="st49" d="M1599.84,919.57c-0.16-0.01-0.32-0.01-0.48,0C1599.52,919.58,1599.68,919.58,1599.84,919.57z"/>
		<path class="st49" d="M146.63,920.2L146.63,920.2C146.28,920.19,146.18,920.2,146.63,920.2z"/>
		<path class="st49" d="M1341.53,918.83h0.21C1343.01,918.81,1342.29,918.81,1341.53,918.83z"/>
		<path class="st49" d="M900.99,918.82c5.04,0.25-8.12,0.32-0.62,0.6C899.68,919.31,907.21,918.98,900.99,918.82z"/>
		<path class="st49" d="M1230.96,918.87c0.37,0.06,0.75,0.1,1.13,0.12C1231.72,918.91,1231.34,918.87,1230.96,918.87z"/>
		<path class="st49" d="M1188.2,919.22c-1.11,0-1.49-0.06-3,0h0.45C1186.5,919.18,1187.35,919.18,1188.2,919.22z"/>
		<path class="st49" d="M281.87,920.51c-0.98,0-1.59-0.08-2.05-0.11C280.5,920.49,273.96,920.5,281.87,920.51z"/>
		<path class="st49" d="M1783,920.08c-0.26,0-0.64,0-1.32,0h1.47C1783.29,920.09,1783.31,920.08,1783,920.08z"/>
		<path class="st49" d="M601.23,920.96h-1.62C600.24,920.99,600.82,920.99,601.23,920.96z"/>
		<path class="st49" d="M1158.32,921.34c-1.26-0.1-2.59-0.15-3.98-0.19c-0.29,0-0.63,0-0.82,0.07L1158.32,921.34z"/>
		<path class="st49" d="M233.21,920.55c6.74,0,3.16-0.12,4.6-0.2c8.04,0,3.72,0.11,6.46,0.19c5.04,0,8.82-0.14,12.6-0.13
			c0.28,0,1.01,0,0.15,0.06c5.3-0.11,15.76,0,21.94-0.12h0.82c-1.01-0.08-1.16-0.16-0.96-0.22c3.02,0,5.61-0.1,6.74,0
			c-1.85,0-2,0-2.87,0.07l3.17-0.05c2.85,0.17-4.32,0.05-4.32,0.17c6.17,0,13.36-0.17,18.09-0.12c1,0.17-11.06,0-4.75,0.19
			l-7.32-0.07c5.59,0.26-4.45,0,0.69,0.25h20.38c2.17-0.09-0.71-0.14,1.45-0.23c13.67-0.16,10.76,0.46,20.8,0.24
			c3.58-0.25,7.17-0.32,10.76-0.21l-2.44,0.21c9.33,0,5.33-0.3,15.11-0.14c-1.74,0.08-7.33,0.06-5.92,0.09
			c6.3,0.18,4.48-0.12,9.35-0.11l1.01,0.19l31.85-0.16c-0.6,0.06-2.52,0.12,0.09,0.19c13.86-0.08,29.6,0.07,42.98,0.23l5.11-0.19
			c1.18,0,2.2,0.09,0.92,0.13c5.21,0.09,0.26-0.13,2.77-0.2c2.96,0,3.92,0.12,2.04,0.18c9.19-0.16,26.2-0.35,35.9-0.11l-1.89,0.06
			c7.56,0.1,8.51-0.44,15.52-0.23h-1.35c16.37,0.12,34.49-0.08,46.98,0.28c2.38-0.33,16.22,0.17,17.27-0.31
			c9.36,0.25,6.68,0.34,19.85,0.51c3.51,0,5.24-0.3,9.6-0.35l0.1,0.26l5.91-0.27l3.14,0.32l4.08-0.06c-1.07,0.04-2.15-0.03-3.2-0.2
			c3.19-0.06,7.07,0,10.18,0.07c1.84,0.01,3.69,0.1,5.52,0.27l15.11-0.22c-1.62,0.13-3.24,0.21-4.86,0.21
			c8.05-0.26,1.46,0.29,8.82,0c-1-0.06,0.53-0.16,0.69-0.21c3.68,0.16,12.05,0.17,18.24,0.11l-1.18,0.19
			c11.18,0.06,23.58-0.07,36.12-0.06c-4.5-0.09-3.46-0.43,0.21-0.46l1.47,0.3c2.38-0.18-3.78-0.11,1.03-0.34
			c4.69,0,3.15,0.35,0.45,0.44l5.71-0.1c0.34,0.09-1.01,0.14-1.35,0.25c2.33-0.18,9.84,0.31,13.21,0l0.31,0.09l28.47-0.1
			c0.2-0.26,4.19-0.2,7.24-0.41c7.56,0.08,15.85,0.3,24.89,0.28c6.36-0.13,1.86-0.23,4.72-0.39c0.47,0.25,9.5,0.23,4.81,0.41
			c10.87,0,13.86,0,27.61-0.24c-1.49-0.11-3.16-0.15-2.29-0.24c1.78-0.09,3.56-0.01,5.32,0.23h-0.67
			c15.42-0.38,35.6,0.74,47.86,0.22h-0.68l12.73-0.27c5.86,0-3.51,0.19,0.82,0.35c13.73-0.42,21.7,0.07,33.01-0.21
			c8.75,0.75,31.06,0,42.82,0.43l-0.68-0.18c1.98-0.07,3.97-0.02,5.95,0.14c-0.31-0.14-3.31-0.16-1.41-0.25
			c25.87-0.22,53.41,0.26,79.93,0.41c9.7,0,5.5-0.92,17.73-0.5l-3.48,0.33c19.59-0.39,40.04,0,59.2-0.33
			c-1.01,0.11-2.03,0.17-3.05,0.17c2.03,0.12,5.77,0.12,9.02,0.07c2.01,0.02,4.02-0.07,6.02-0.26c2.99,0,0.69,0.18,2.52,0.27
			c4.07,0.14,10.19-0.3,12.36-0.07c-0.62,0.08-1.26,0.11-1.89,0.09c2.65-0.11,12.33,0,9.8-0.24c7.19,0.12,13.75-0.12,19.5,0
			c3.78-0.3,12.32,0.14,13.5-0.28c-0.52,0.43,12.6,0.34,17.16,0.13c-1.52,0.13,3.95,0.14,2.18,0.32c5.19,0,9.94-0.1,9.03-0.31
			c9.57,0.5,19.23-0.42,24.61,0.22c15.42-0.24,29.69-0.39,43.56-0.5c-0.5,0.41-15.33,0-14.74,0.48c13.16-0.18,20.74-0.53,33.79-0.44
			c3.38,0-1.91,0.17-3.06,0.24c13.15-0.17,25.42,0,37.12-0.21c-0.84,0.07-1.68,0.11-2.52,0.11c2.3,0,5.35,0.05,5.04-0.12l-2.24,0.05
			c-3.68-0.26,9.16-0.54,9.57-0.67c-3.92,0.5,11.55,0.12,5.33,0.75c1.52,0,3.43-0.12,3.07-0.23c2.25,0,2.97,0.1,0.69,0.23
			c8.25-0.1,5.32-0.28,12.8-0.28c0,0.08-1.54,0.11-2.3,0.21c3.78-0.17,7.56-0.33,13.86-0.26c-0.39,0,0.35,0.11-1.54,0.11
			c10.86,0,18.5-0.43,30.42-0.29c-3.51,0.35,4.04,0.11,4.69,0.41l6.4-0.1l-2.52-0.14c5.6,0,10.57-0.21,15.39-0.12l-4.17,0.12
			l10.52-0.06l-5.96-0.1c5.68-0.15-0.6-0.37,6.86-0.29c-1.52,0,5.6,0,8.54,0.17l0,0c2.77-0.09,5.63-0.19,9.79-0.12
			c1.07,0.09-0.87,0.31-0.18,0.37c2.75-0.24,13.15-0.08,16.61-0.32c-1.16,0.06-1.26,0.2-0.84,0.23l2.3-0.19
			c2.59,0.06,2.97,0.09,2.52,0.2c7.82,0-2.52-0.34,6.79-0.2c-0.72,0-0.38,0-1.89,0.07c9.32,0.07,18-0.12,26.56,0
			c2.52,0.25-7.48,0.07-4.58,0.28c12.34-0.06,25.56-0.32,37.51-0.27h-2.23c1.66-0.34,8.91,0.16,14.94,0c-1.47,0-1.94,0.19-1.54,0.15
			c8.19,0,16.73-0.1,29.12-0.2l-1.54,0.08c4.82,0.06,12.71,0,17.91,0.05c1.55-0.07,4.52-0.06,2.72-0.17
			c16.06,0.39,30.63-0.23,44.88,0.08c-1.7,0-4.06,0.06-2.71,0.06l12.14-0.07c-0.96-0.11-1.59-0.07-4.14-0.15
			c1.54-0.06,4.96-0.11,7.97-0.11c-5.45,0.07,0,0.17,2.41,0.22c-0.39,0,0.42-0.06,0.21-0.1c6.3,0.18,1.06-0.2,9.71-0.08l-0.45,0.05
			c3.24,0,6.22-0.09,9.72-0.08c1.45,0.11-3.45,0-3.68,0.14c4.91,0,9.69-0.21,14.13-0.1l-7.17,0.06c4.84,0.12,5.39,0.09,8.99,0.1
			H1675h8.31h-2.12c6.15-0.25,12.51-0.06,20.78-0.21c-8.05,0.14-1.34,0.08-1.95,0.18c2.12,0,5.33,0.05,4.41,0.08
			c3.92-0.08,6.52,0,12.04-0.07c0.25,0,4.18,0,3.3,0.06c5.04,0-1.2,0-0.77-0.08c7.83-0.1,18.41,0.08,29.69-0.06l20.53-0.15
			c3.05,0-2.52,0.07-2.52,0.07h13.24c-0.93,0,0,0,1.44,0c3.78,0,2.52-0.06,7.38,0l-3.7,0.05l13.23-0.06c1.26,0-2.73,0-4.33,0
			l14.76-0.06h-3.26c1.85,0,0.96,0-0.42,0c-4.36,0-6.3,0-6.54,0h3.22c-3.31-0.06-12.96,0-19.45,0l2.7-0.06h-6.65
			c-1.42,0-2.39,0,0.82-0.06h-8.12c-0.44,0-0.24,0,0.16,0h-4.55c0.68-0.07,1.36-0.07,2.04,0c-8.16-0.06-13.17,0.05-16.25,0h0.69
			c-11.34,0-1.1,0.06-9.6,0.15l-5.72-0.19l-1.12,0.08c-1.16,0-3.48,0-3.05,0c-4.35,0,0.74,0-1.79,0.08
			c-5.62-0.08-15.51,0-16.78-0.11c-2.02,0.07,5.38,0.06-0.62,0.1c-1.71-0.16-6.95,0-12.09-0.05c1.59-0.08,6.45,0,1.26-0.12
			c-3.1,0.15-10.01,0-14.35,0c-0.1,0.07-2.52,0.08-5.69,0.08h-11.01c0.47-0.05-13.69-0.09-20.46-0.15h0.2
			c-1.26,0.16-8.29,0.12-13.38,0.15c1.28-0.18,2.57-0.24,3.87-0.18h-4.77c-1.12,0-2.62,0.08-5.72,0.09l1.26-0.12
			c-6.3,0-12.81,0.14-21,0c-0.45,0.13,6.51,0.35-2.14,0.44c-0.33-0.07-0.64-0.19,1.62-0.22c-0.74,0-2.65,0.06-4.14,0l3.46-0.11
			c-3.78-0.06-1.95,0.09-4.94,0.08c0-0.1-2.2-0.07-1.78-0.15c0.77,0,2.61,0,3.78,0c-3.36,0-7.42-0.08-8.82-0.16
			c0.29,0.06,0,0.14-2.52,0.15c-1.96,0.02-3.93-0.04-5.88-0.19c-1.54,0.07-5.6,0-5.71,0.15c-0.98,0.01-1.95-0.03-2.92-0.12
			c-3.29,0.07-15.38,0-11.66,0.18h0.84h-0.54c-10.78,0.17-22.41-0.11-33.11,0v-0.06c-6.4,0.06-14.22,0-18.79,0.16
			c-1.89,0-4.46-0.11-3.65-0.19c-4.87,0-5.43,0.12-12.48,0c1.68-0.12,3.36-0.14,5.04-0.08c-6.3-0.06-7.77-0.17-14.59,0
			c2.32-0.17-4.79-0.22-7.8-0.17l4.45,0.13c-3.4,0-6.3,0-9.37,0l1.62-0.22c-12.99-0.31-23.42,0.46-33.3,0
			c-3.44,0.17,7.05,0.13,3.98,0.32c-5.97,0-12.2-0.39-14.07-0.39c-8.19-0.15-7.63,0.35-16.2,0.25c1.1,0.09,2.13,0.33-4.27,0.41
			c-5.98,0-7.36-0.38-3.58-0.45c0.69-0.05,1.38-0.05,2.07,0c1.93,0,4.46-0.07,2.1-0.17l-0.78,0.09c-2.96-0.09-11.18-0.09-9.26-0.24
			c-4.52,0.08-1.93,0.15,1.41,0.2c-7.67-0.14-11.98,0-19.86-0.11c1.26,0.05,2.41,0.16,1.16,0.16c-11.58-0.13-5.1,0.17-12.95,0.21
			c-4.45-0.15,1.6-0.35-6.3-0.23c-4.82-0.1-1.02-0.26,0.89-0.33c-7.19,0.18-13.44-0.14-17.55-0.18l3.78-0.07c-2.27,0-4.12,0-6.01,0
			l2.15,0.2c-1.36,0.03-2.72-0.01-4.07-0.12c-2.29,0.13,1.76,0.33-2.78,0.5c-2.97-0.1-9.04,0.11-10.08-0.16
			c9.33,0.1-1.03-0.27,6.86-0.3c-1.52,0-3.38,0-5.6,0c-0.34,0,0.31-0.06,0.92-0.07c-8.93-0.25-4.11,0.29-13.35,0.28
			c1.17-0.15-2.15-0.29-3.65-0.26c3.78,0,1.78,0.26-1.64,0.37c-5.93-0.12-6.45,0.08-9.56,0.07l3.55,0.06
			c-1.26,0.15-4.17,0.13-8.31,0.17c-0.35-0.12,3.78-0.08,2.28-0.13c-4.58,0.27-10.37-0.29-16.76-0.11c-2.97-0.11-0.29-0.29-2.9-0.37
			c-7.18,0.2-7.77-0.22-15.32-0.06c2.18,0.22,2.52,0.17-2.76,0.37l12.41-0.14l-7.96,0.3c3.78,0,7.9-0.13,10.08-0.09
			c-3.78,0.17-3.4,0.12-1.61,0.29c-5.13-0.32-10.15,0.19-16.07,0l0.19-0.53c-8.91-0.24-15.82,0.26-27.37,0.12l3.78,0.1
			c-1.55,0.21-7.13,0-10.87,0.11c0.34-0.18-1.99-0.25-3.59-0.36c0.19,0.13-8.46,0-9.51,0.34l-5.15-0.24
			c-9.33-0.11-10.66,0.52-19.62,0.46c2.71-0.2-1.37-0.34,4.64-0.48c-1.91-0.07-3.83-0.04-5.73,0.09c-1.75-0.12-8.3,0.25-11.06,0.07
			c-1.67,0.2-3.35,0.29-5.04,0.26c-0.37,0,0-0.09,0-0.09s-5.25,0.12-2.32,0.33c-9.22-0.59-25.78,0-33.81-0.47l-20.34,0.14
			c0.38-0.06,0-0.1,1.13-0.08c-8.17-0.18-5.04,0.55-14.33,0.35c-4.76-0.31,4.94-0.17,1.98-0.29c-1.26-0.63-11.24,0.09-17.51-0.28
			h1.52c-4.8-0.22-11.69,0.24-19.52,0.19c0,0,0.39-0.06,0-0.1c-5.35,0.33-15.48,0.44-23.01,0.53c2.34-0.25,3.43-0.14,1.99-0.39
			c-3.38,0,1,0.41-5.74,0.48c-2.19-0.14-7.05-0.26-7.7-0.53h6.3c-3.25-0.35-8.22,0-11.56-0.05l0.43-0.15
			c-9.75,0-9.88,0.44-20.34,0.41l1.08,0.12c-5.72,0.38-4.8-0.22-10.5,0.07l-1.73-0.4c-3.78,0.1-13.23,0.38-19.99,0.46
			c3.78-0.3,11.75-0.44,16.65-0.62c-3.78,0-12.71,0-14.66,0.23c1.51,0,3.41-0.14,4.9-0.08c-4.58,0.31-10.63,0.46-18.09,0.46
			c1.26-0.77-19.42-0.2-24.84-0.79c-13.19,0.28-26.16-0.12-41.57-0.07c5.44,0.59-4.48,0-3.55,0.62c-3.58,0-4.94,0-5.25,0
			l-10.84-0.36c-2.52-0.17,3.4-0.13,3.07-0.27c-7.83,0-3.29-0.26-8.48-0.42c1.07,0.22-2.72,0.32-7.19,0.23l6.3,0.28
			c-10.96,0.33-9.47-0.5-20.51-0.18l3.49-0.19c-5.67,0.11-20.9,0-26.45,0.48c-1.01-0.06-2.33-0.23,0.16-0.27
			c-13.54-0.07-30.13,0.52-40.65,0.23l1.02-0.15c-2.51,0.14-5.04,0.19-7.56,0.13c0.16-0.06,1.02-0.14-0.15-0.15
			s-6.7,0.25-10.08,0.17l2.86-0.16c-13.2-0.18-20.25,0.4-31.33,0.5c0-0.42-10.37-0.55-15.56-0.61l0.19-0.06
			c-15.38,0-26.11,0.36-40.31,0.53c-8.82-0.44-29.93-0.17-44.08-0.4c2.18,0.07-0.35,0.31-2.87,0.35c-3.34-0.07-9.22,0.28-8.69-0.08
			h1.2c-2.52-0.35-9.37-0.25-14.71-0.26l-0.88,0.47c-13.99-0.66-36.65,0.27-44.3-0.31l-10.9,0.23l0.18-0.24
			c-9.35,0-14.02-0.07-25.58,0l2.36-0.17c-6.52,0-8.24,0.67-14.25,0.69l-1.81-0.34c-11.34,0-22.89-0.25-34.13,0.06
			c0.77-0.16,1.57-0.21,2.37-0.16c-5.37,0-20.72-0.18-18.78,0.24c-0.13-0.28-11.74,0-17.87,0.12l0.94-0.2
			c-5.18,0.26-5.34,0.33-12.6,0.4c-1.73,0-1.51-0.15,0.77-0.1c-5.72-0.1-4.46,0.18-11.34,0.09l2.58-0.13c-5.88,0-5.42,0.06-8.65,0.2
			c-3.7,0.08-11.16,0-12.03-0.21c-2.49,0.19-4.99,0.26-7.48,0.2c-0.48-0.06,0.79-0.1,1.42-0.12c-9.84-0.11-14.62,0.22-21.41,0
			c-0.37-0.08-0.75-0.11-1.13-0.1c7.81,0,14.11,0,13.51,0c0-0.17-6.3-0.19-1.26-0.42c-5.04,0.13-13.74,0.41-19.89,0.34l-0.82-0.05
			h0.64c-1.42,0-2.7,0-3.89,0h-5.1c-0.73-0.13-7.24,0-10.39,0c0.26,0.16-3.85,0.14,0,0.27c-0.49,0,0.6,0,2.7,0h1.34h-0.21h7.83
			c-2.52,0.09-5.04,0.16-8.58,0.07l-4.4,0.27c-4.31-0.23-12.6-0.34-13.77-0.47c-9.61,0.1-22.67,0.1-28.68,0.38
			c-1.39,0.04-2.78,0-4.17-0.12c1.57,0,3.45,0,4.31-0.06c-5.47,0.07-16.19,0.05-17.5,0.23c-6.89-0.08,3.87-0.17-5.59-0.13l1.26-0.06
			c-18.62-0.23-30.23,0.46-50.9,0.15c1.42,0,2.14,0,2.43,0c-23.53-0.09-48.49,0.14-71.72,0c-6.6,0-7.32,0.05-11.34,0.09l-1.44-0.06
			l-6.89,0.08c-9.76,0-16.92-0.11-29.27,0h1.59c-4.43,0-14.07,0-13.33,0h-3.19h-0.14h-10.91c-8.45,0,1.32-0.05-11.02,0H86.15h0.67
			c-0.76,0-3.98,0,6.3,0h7.17h2.32h-6.05h8.04h3.01h7.04c0.86,0-3.16,0,1.57,0c3.3,0-3.17,0,2.29,0c3.44,0,2.43,0,6.46,0
			c0.57,0-0.29,0-1.89,0h11.34c3.58,0,12.12,0,11.76,0.09h9.61c-6.02,0.08,12.33,0,10.74,0.15c4.45-0.09,16.08,0,23.93,0
			c-0.44,0-1.26,0-2.02,0c4.45,0,5.74,0.07,8.59,0.1c0.57-0.11,7.49-0.12,11.22-0.19c5.44,0.13-3.31,0.14-1.6,0.25
			c-0.28-0.09,9.46-0.07,7.56-0.16c4.16,0.08,3.58,0,5.73,0.16c0.73-0.17,3.88,0,7.33-0.12c6.02,0.1,1.55,0.17,8.16,0.13
			C239.1,920.5,233.21,920.55,233.21,920.55z M403.88,920.45h-5.73c-0.47-0.07,0-0.13,1.36-0.13c-0.76,0.05,2.36,0.08,4.33,0.14
			L403.88,920.45z M375.87,919.26c1.02-0.05,2.05-0.05,3.07,0h-3.65h-0.25C375.32,919.25,375.59,919.25,375.87,919.26z"/>
		<polygon class="st49" points="586.51,921.06 586.48,921 585.32,921.05 		"/>
		<path class="st49" d="M1315.01,920.91h-0.94C1311.88,920.97,1313.37,920.95,1315.01,920.91z"/>
		<path class="st49" d="M1429.49,920.3l-3.68,0.1C1427.04,920.48,1428.27,920.45,1429.49,920.3z"/>
		<path class="st49" d="M1420.48,920.4c2.04,0,3.78,0,5.33,0C1424.14,920.39,1422.17,920.37,1420.48,920.4z"/>
		<path class="st49" d="M1722.2,919.84h8.16c-1.44,0-3.3-0.07,0.4-0.07C1720.48,919.69,1732.89,919.87,1722.2,919.84z"/>
		<path class="st49" d="M1696.91,919.76c4.38,0,0,0,0.19-0.07C1694.31,919.72,1693.63,919.73,1696.91,919.76z"/>
		<path class="st49" d="M1514.13,919.56l0.44-0.16C1511.2,919.42,1514.51,919.46,1514.13,919.56z"/>
		<polygon class="st49" points="1479.19,920.45 1482.49,920.56 1484.05,920.4 		"/>
		<polygon class="st49" points="1458.56,919.16 1460.03,919.13 1454.4,919.19 		"/>
		<path class="st49" d="M1151.59,918.97l1.02,0.3C1154.89,919.22,1155.37,918.88,1151.59,918.97z"/>
		<path class="st49" d="M1019.08,919.25c-2.48-0.2-4.98-0.23-7.47-0.1C1014.59,919.17,1017.56,919.29,1019.08,919.25z"/>
		<polygon class="st49" points="621.65,918.89 624.32,918.8 619.29,918.88 		"/>
	</g>
	<path class="st16" d="M1726.33,876.31h-671.64V489.04c0-5.5,4.78-9.95,10.67-9.95c85.09,0,650.29,0,650.29,0
		c5.9,0,10.68,4.46,10.68,9.95V876.31z"/>
	<path class="st51" d="M1706.48,881.78h-631.95V503.35c0-3.12,2.53-5.65,5.65-5.65h620.65c3.12,0,5.65,2.53,5.65,5.65V881.78z"/>
	<path class="st15" d="M1754.22,925.37H1026.8c-19.25,0-34.85-15.6-34.85-34.85l0,0c0-7.23,5.86-13.09,13.09-13.09h770.94
		c7.23,0,13.09,5.86,13.09,13.09v0C1789.07,909.77,1773.47,925.37,1754.22,925.37z"/>
	<path class="st18" d="M1280.82,905.79h219.39c3.93,0,7.11-3.18,7.11-7.11v-1.67h-233.61v1.67
		C1273.71,902.6,1276.89,905.79,1280.82,905.79z"/>
	<g>
		<g>
			<g>
				<path class="st18" d="M1503.59,826.95h-198.37c-2.72,0-4.93-2.52-4.93-5.62V554.06c0-3.1,2.21-5.62,4.93-5.62h162.41
					c1.47,0,2.87,0.75,3.81,2.04l35.96,49.67c0.73,1.01,1.13,2.27,1.13,3.57v217.59C1508.52,824.43,1506.32,826.95,1503.59,826.95z"
					/>
				<path class="st19" d="M1441.55,629.38h-98.98c-0.78,0-1.4-0.63-1.4-1.4v-47.03c0-0.78,0.63-1.4,1.4-1.4h98.98
					c0.78,0,1.4,0.63,1.4,1.4v47.03C1442.95,628.75,1442.32,629.38,1441.55,629.38z"/>
				<g>
					<line class="st52" x1="1399.38" y1="657.79" x2="1469.91" y2="657.79"/>
					<line class="st52" x1="1344.01" y1="690.65" x2="1469.91" y2="690.65"/>
					<line class="st52" x1="1344.01" y1="723.51" x2="1469.91" y2="723.51"/>
					<line class="st52" x1="1344.01" y1="756.37" x2="1469.91" y2="756.37"/>
					<line class="st52" x1="1344.01" y1="789.23" x2="1469.91" y2="789.23"/>
				</g>
			</g>
			<g>
				<g>
					<path class="st18" d="M1366.7,659.87h-91.54c-0.51,0-0.92-0.41-0.92-0.92v-45.82c0-0.51,0.41-0.92,0.92-0.92h91.54
						c0.51,0,0.92,0.41,0.92,0.92v45.82C1367.61,659.46,1367.2,659.87,1366.7,659.87z"/>
				</g>
			</g>
			<g>
				<g>
					<path class="st17" d="M1366.7,659.87h-91.54c-0.51,0-0.92-0.41-0.92-0.92v-45.82c0-0.51,0.41-0.92,0.92-0.92h91.54
						c0.51,0,0.92,0.41,0.92,0.92v45.82C1367.61,659.46,1367.2,659.87,1366.7,659.87z"/>
				</g>
			</g>
		</g>
		<g>
			<path class="st19" d="M1292.19,625.84h7.84c1.41,0,2.65,0.25,3.74,0.74c1.09,0.49,1.94,1.22,2.56,2.19
				c0.62,0.97,0.93,2.16,0.93,3.59c0,1.39-0.32,2.57-0.95,3.53s-1.49,1.7-2.57,2.21c-1.09,0.5-2.32,0.75-3.71,0.75h-3.59v7.4h-4.25
				V625.84z M1300.05,635.16c0.89,0,1.61-0.26,2.15-0.77c0.54-0.51,0.81-1.19,0.81-2.03c0-0.86-0.27-1.54-0.81-2.05
				c-0.54-0.51-1.26-0.77-2.15-0.77h-3.62v5.62H1300.05z"/>
			<path class="st19" d="M1312.71,625.84h6.66c2.21,0,4.13,0.44,5.75,1.32c1.63,0.88,2.89,2.08,3.78,3.62s1.34,3.29,1.34,5.26
				c0,1.97-0.45,3.73-1.34,5.27c-0.89,1.54-2.16,2.75-3.78,3.63c-1.63,0.88-3.54,1.32-5.75,1.32h-6.66V625.84z M1319.47,642.55
				c1.33,0,2.48-0.27,3.45-0.81c0.97-0.54,1.72-1.3,2.26-2.27c0.54-0.98,0.81-2.12,0.81-3.44c0-1.33-0.27-2.48-0.81-3.45
				c-0.54-0.97-1.29-1.72-2.26-2.25c-0.97-0.53-2.12-0.79-3.45-0.79h-2.52v13.01H1319.47z"/>
			<path class="st19" d="M1335.69,625.84h13.97v3.7h-9.72v5.18h8.36v3.7h-8.36v7.84h-4.25V625.84z"/>
		</g>
	</g>
	<g>
		<path class="st18" d="M1202.07,703.71H1003.8c-2.72,0-4.93-2.51-4.93-5.61V430.96c0-3.1,2.21-5.61,4.93-5.61h162.34
			c1.47,0,2.87,0.75,3.8,2.04l35.94,49.65c0.73,1.01,1.13,2.27,1.13,3.57V698.1C1207,701.2,1204.8,703.71,1202.07,703.71z"/>
		<path class="st19" d="M1140.06,506.24h-98.93c-0.78,0-1.4-0.63-1.4-1.4v-47c0-0.78,0.63-1.4,1.4-1.4h98.93
			c0.78,0,1.4,0.63,1.4,1.4v47C1141.46,505.61,1140.83,506.24,1140.06,506.24z"/>
		<path class="st17" d="M1065.24,536.72h-91.5c-0.51,0-0.92-0.41-0.92-0.92v-45.79c0-0.51,0.41-0.92,0.92-0.92h91.5
			c0.51,0,0.92,0.41,0.92,0.92v45.79C1066.16,536.31,1065.75,536.72,1065.24,536.72z"/>
		<g>
			<path class="st19" d="M990.77,502.71h7.83c1.41,0,2.65,0.25,3.74,0.74c1.08,0.49,1.94,1.22,2.56,2.19
				c0.62,0.97,0.93,2.16,0.93,3.59c0,1.39-0.32,2.56-0.95,3.53c-0.63,0.97-1.49,1.7-2.57,2.2c-1.09,0.5-2.32,0.75-3.71,0.75h-3.59
				v7.39h-4.24V502.71z M998.63,512.02c0.89,0,1.61-0.26,2.15-0.77c0.54-0.51,0.81-1.19,0.81-2.03c0-0.86-0.27-1.54-0.81-2.05
				c-0.54-0.51-1.26-0.77-2.15-0.77h-3.61v5.61H998.63z"/>
			<path class="st19" d="M1011.28,502.71h6.66c2.21,0,4.12,0.44,5.75,1.31c1.62,0.88,2.88,2.08,3.78,3.61
				c0.89,1.53,1.34,3.29,1.34,5.26c0,1.97-0.45,3.73-1.34,5.27c-0.89,1.54-2.15,2.75-3.78,3.63c-1.62,0.88-3.54,1.31-5.75,1.31
				h-6.66V502.71z M1018.04,519.41c1.33,0,2.48-0.27,3.45-0.81c0.97-0.54,1.72-1.3,2.26-2.27c0.54-0.98,0.81-2.12,0.81-3.44
				c0-1.33-0.27-2.48-0.81-3.45c-0.54-0.97-1.29-1.72-2.26-2.25c-0.97-0.53-2.12-0.79-3.45-0.79h-2.52v13.01H1018.04z"/>
			<path class="st19" d="M1034.25,502.71h13.97v3.7h-9.72v5.18h8.35v3.7h-8.35v7.83h-4.25V502.71z"/>
		</g>
		<g>
			<line class="st52" x1="1097.78" y1="539.81" x2="1171.72" y2="539.81"/>
			<line class="st52" x1="1039.72" y1="572.65" x2="1171.72" y2="572.65"/>
			<line class="st52" x1="1039.72" y1="605.5" x2="1171.72" y2="605.5"/>
			<line class="st52" x1="1039.72" y1="638.34" x2="1171.72" y2="638.34"/>
			<line class="st52" x1="1039.72" y1="671.18" x2="1171.72" y2="671.18"/>
		</g>
	</g>
	<g>
		<g>
			<path class="st18" d="M1808.32,826.94h-198.36c-2.72,0-4.93-2.51-4.93-5.62V554.07c0-3.1,2.21-5.62,4.93-5.62h162.41
				c1.47,0,2.87,0.75,3.81,2.04l35.95,49.67c0.73,1.01,1.13,2.27,1.13,3.57v217.59C1813.25,824.42,1811.04,826.94,1808.32,826.94z"
				/>
			<path class="st19" d="M1746.28,629.38h-98.97c-0.78,0-1.4-0.63-1.4-1.4v-47.03c0-0.78,0.63-1.4,1.4-1.4h98.97
				c0.78,0,1.4,0.63,1.4,1.4v47.03C1747.68,628.75,1747.05,629.38,1746.28,629.38z"/>
			<g>
				<line class="st52" x1="1704.11" y1="657.79" x2="1774.64" y2="657.79"/>
				<line class="st52" x1="1648.74" y1="690.65" x2="1774.64" y2="690.65"/>
				<line class="st52" x1="1648.74" y1="723.51" x2="1774.64" y2="723.51"/>
				<line class="st52" x1="1648.74" y1="756.37" x2="1774.64" y2="756.37"/>
				<line class="st52" x1="1648.74" y1="789.23" x2="1774.64" y2="789.23"/>
			</g>
		</g>
		<g>
			<g>
				<path class="st10" d="M1671.43,659.87h-91.54c-0.51,0-0.92-0.41-0.92-0.92v-45.81c0-0.51,0.41-0.92,0.92-0.92h91.54
					c0.51,0,0.92,0.41,0.92,0.92v45.81C1672.35,659.46,1671.94,659.87,1671.43,659.87z"/>
			</g>
		</g>
		<g>
			<path class="st19" d="M1594.65,626.29h6.52c2.16,0,4.04,0.43,5.63,1.29c1.59,0.86,2.83,2.04,3.7,3.54
				c0.88,1.5,1.31,3.22,1.31,5.15c0,1.93-0.44,3.65-1.31,5.16c-0.88,1.51-2.11,2.7-3.7,3.55c-1.59,0.86-3.47,1.29-5.63,1.29h-6.52
				V626.29z M1601.27,642.65c1.31,0,2.43-0.26,3.38-0.79c0.95-0.53,1.69-1.27,2.21-2.23c0.53-0.96,0.79-2.08,0.79-3.37
				c0-1.31-0.26-2.43-0.79-3.38c-0.53-0.95-1.27-1.68-2.21-2.2s-2.07-0.78-3.38-0.78h-2.47v12.74H1601.27z"/>
			<path class="st19" d="M1620.29,645.82c-1.29-0.52-2.41-1.25-3.37-2.19c-0.96-0.94-1.7-2.03-2.24-3.29
				c-0.54-1.25-0.81-2.61-0.81-4.08c0-1.47,0.26-2.83,0.79-4.08c0.53-1.25,1.27-2.34,2.23-3.27c0.96-0.93,2.08-1.65,3.37-2.17
				c1.29-0.52,2.69-0.78,4.21-0.78c1.52,0,2.92,0.26,4.21,0.78c1.29,0.52,2.41,1.24,3.37,2.17c0.96,0.93,1.7,2.02,2.23,3.27
				c0.53,1.25,0.79,2.61,0.79,4.08c0,1.47-0.27,2.83-0.8,4.08c-0.54,1.25-1.28,2.35-2.24,3.29c-0.96,0.94-2.08,1.67-3.37,2.19
				c-1.29,0.52-2.68,0.78-4.18,0.78C1622.97,646.59,1621.58,646.33,1620.29,645.82z M1627.76,641.99c0.97-0.56,1.74-1.34,2.31-2.32
				c0.56-0.98,0.85-2.12,0.85-3.41c0-1.29-0.28-2.42-0.85-3.41c-0.56-0.98-1.33-1.75-2.31-2.31c-0.97-0.55-2.07-0.83-3.29-0.83
				c-1.22,0-2.31,0.28-3.29,0.83c-0.97,0.55-1.74,1.32-2.31,2.31c-0.56,0.98-0.85,2.12-0.85,3.41c0,1.29,0.28,2.42,0.85,3.41
				c0.56,0.98,1.33,1.76,2.31,2.32c0.97,0.56,2.07,0.85,3.29,0.85C1625.69,642.84,1626.79,642.56,1627.76,641.99z"/>
			<path class="st19" d="M1643.53,645.82c-1.22-0.52-2.29-1.24-3.2-2.17c-0.91-0.93-1.62-2.02-2.13-3.27
				c-0.51-1.25-0.77-2.62-0.77-4.1c0-1.48,0.25-2.86,0.75-4.12c0.5-1.26,1.21-2.35,2.12-3.27c0.91-0.92,1.98-1.64,3.21-2.15
				c1.22-0.51,2.56-0.76,4.01-0.76s2.75,0.24,3.9,0.72c1.15,0.48,2.13,1.13,2.94,1.93c0.8,0.8,1.38,1.7,1.72,2.68l-3.68,1.77
				c-0.34-0.97-0.93-1.77-1.78-2.4c-0.85-0.63-1.88-0.95-3.1-0.95c-1.18,0-2.22,0.28-3.11,0.83c-0.9,0.55-1.59,1.32-2.08,2.29
				c-0.49,0.97-0.74,2.11-0.74,3.42c0,1.31,0.24,2.45,0.74,3.43c0.49,0.98,1.18,1.75,2.08,2.31c0.89,0.55,1.93,0.83,3.11,0.83
				c1.22,0,2.25-0.32,3.1-0.95c0.85-0.63,1.44-1.44,1.78-2.4l3.68,1.77c-0.34,0.98-0.91,1.88-1.72,2.68
				c-0.81,0.8-1.78,1.45-2.94,1.93c-1.15,0.48-2.45,0.72-3.9,0.72C1646.08,646.59,1644.76,646.33,1643.53,645.82z"/>
		</g>
	</g>
	<path class="st23" d="M629.9,371.99c-0.96-2.18-1.84-3.92-2.47-5.12c-1.43-2.71-1.6-2.78-2.01-5.13c-0.23-1.3-0.18-2.22-0.18-2.74
		c0-1.24,0.16-5.19-0.66-8.33c-0.72-2.73-3.88-7.44-5.81-9.25c-5.27-4.94-20.44,6.23-21,13c-0.21,2.59,4.3,7.58,5.14,8.93
		c0.65,1.04,2.19,3.51,5.12,4.84c2.45,1.12,2.89,1.31,4.98,2.15c1.65,0.66,3.84,2.26,5.57,6.67"/>
	<g id="buttons">
		<linearGradient id="SVGID_1_" gradientUnits="userSpaceOnUse" x1="355.9326" y1="532.8627" x2="650.5702" y2="419.0589">
			<stop  offset="0" style="stop-color:#68F6F5;stop-opacity:0.1"/>
			<stop  offset="0.0647" style="stop-color:#7DF7F6;stop-opacity:0.1583"/>
			<stop  offset="0.2055" style="stop-color:#A4FAF9;stop-opacity:0.2849"/>
			<stop  offset="0.3508" style="stop-color:#C5FCFB;stop-opacity:0.4157"/>
			<stop  offset="0.4998" style="stop-color:#DFFDFD;stop-opacity:0.5498"/>
			<stop  offset="0.6538" style="stop-color:#F1FEFE;stop-opacity:0.6884"/>
			<stop  offset="0.816" style="stop-color:#FCFFFF;stop-opacity:0.8344"/>
			<stop  offset="1" style="stop-color:#FFFFFF"/>
		</linearGradient>
		<path style="fill:url(#SVGID_1_);" d="M623.25,382.89c-3.71,2.78-255.04,104.72-255.04,104.72l304.64-30.43"/>
		<line class="st54" x1="276.18" y1="693.53" x2="411.99" y2="693.53"/>
		<line class="st54" x1="276.18" y1="806.53" x2="401.18" y2="806.53"/>
		<path class="st55" d="M533.79,359.08l-111.77,61.62l-10.82-19.62l92.7-51.11c10.53-5.8,23.77-1.98,29.57,8.55L533.79,359.08z"/>
		<rect x="389.34" y="523.23" class="st18" width="290.55" height="157.52"/>
		<path class="st15" d="M587.3,330.18l-116.92,64.47l-6.36-11.53l105.72-58.29c6.19-3.41,13.97-1.16,17.38,5.03L587.3,330.18z"/>
		<rect x="557.43" y="574.44" class="st15" width="122.47" height="75.1"/>
		<path class="st15" d="M390.03,649.47H679.9v270.61H364.76V674.75C364.76,660.79,376.07,649.47,390.03,649.47z"/>
		<path class="st18" d="M669.01,318.13c0,0-303.26,170.88-303.26,170.88l-27.95-49.6c-1.67-2.96-0.62-6.71,2.34-8.38l95.08-53.57
			c13.7-7.72,29.79-10.11,45.11-6.58c15.43,3.56,34.9,6.34,44.83,0.99c16.8-9.04,111.34-61.75,122.65-66.16
			C660.33,300.83,669.2,318.02,669.01,318.13z"/>
		<path class="st15" d="M679.9,530.87H388.15c-12.69,0-22.98-10.29-22.98-22.98v-20.28H679.9V530.87z"/>
		<path class="st16" d="M679.96,579.19H495.22c-12.42,0-22.49-10.07-22.49-22.49v-69.09h207.24V579.19z"/>
		<line class="st56" x1="364.76" y1="778.71" x2="679.9" y2="778.71"/>
		<line class="st56" x1="397.49" y1="649.05" x2="679.9" y2="649.05"/>
		<line class="st56" x1="364.76" y1="848.78" x2="679.9" y2="848.78"/>
		<rect x="501.6" y="800.27" class="st18" width="41.45" height="6.44"/>
		<rect x="501.6" y="681.72" class="st18" width="41.45" height="14.43"/>
		<rect x="501.6" y="871.1" class="st18" width="41.45" height="6.41"/>
	</g>
	<g>
		<path class="st15" d="M189.9,559.41c-3.29-2.28-19.96-13.34-41.8-9.18c-15.45,2.94-19.41,10.27-20.29,14.6l10.47-3.75
			c9.35-3.12,21.96-3.64,21.96-3.64"/>
		<path class="st18" d="M134.74,555.15c1.76-1.62,5.75-3.16,7.77-3.9c5.47-2,19.92-6.05,26.24-7.73
			c15.36-4.08,30.67-8.39,45.95-12.64c5.02-1.4,9.96-2.96,14.88-4.64c4.89-1.67,11.5-3.05,16.62-3.76c1.97-0.27,3.98-0.04,5.95,0.21
			c31.44,4.03,54.2,20.75,85.39,26.41c4.79,0.87,6.36,0.5,4.91,2.8c-2.24,3.55-6.38,6.17-9.76,8.49c-4.57,3.13-9.36,5.93-14.3,8.42
			c-11.33,5.71-23.12,10.9-34.67,16.19c-13.92,6.37-24.82,11.27-39.62,14.94c-2.68,0.66-4.53,1.34-7.17,0.28
			c-7.39-2.96-25.23-12.27-29.74-14.83c-9.6-5.47-14.04-9.38-23.77-14.67c-6.19-3.37-12.33-6.9-18.84-9.62
			c-6.52-2.73-13.29-4.86-20.2-6.36C141.86,554.2,136.93,553.13,134.74,555.15z"/>
		<g>
			<path class="st57" d="M246.87,534.26c21.46,2.09,40.35,17.87,62.32,21.12"/>
			<path class="st57" d="M232.2,539.73c11.47,2.15,22.68,5.73,33.28,10.6c9.96,4.58,17.99,9.38,28.62,12.38"/>
			<path class="st57" d="M213.9,544.4c8.37,2.78,17.04,4.2,25.33,7.41c13.23,5.13,24.74,13.88,38.32,18.07"/>
			<path class="st57" d="M195.08,548.8c12.26,3.03,24.41,6.73,35.88,12.07c10.7,4.98,20.01,12.53,31.63,15.41"/>
			<path class="st57" d="M215.68,569.2c11.14,2.15,18,11.66,29.84,12.88"/>
		</g>
	</g>
	<path class="st23" d="M617.5,347.79c-0.26-0.67-0.68-1.71-1.22-2.99c-0.69-1.6-0.92-2.04-1.3-3.07c-1.04-2.9-0.71-3.77-0.57-4.07
		c0.04-0.08,0.66-1.39,1.63-1.38c0.88,0.01,1.57,1.11,1.98,1.78c0.82,1.36,2.03,3.38,3.94,7.6"/>
	<g>
		<path class="st18" d="M427.49,915.5h-9.8c-0.76,0-1.49-0.29-1.98-0.79l-1.25-1.28c-0.39-0.4-0.6-0.9-0.6-1.42v-1
			c0-1.11,0.95-2.05,2.23-2.2l8.02-0.94c0.95-0.11,1.76-0.67,2.08-1.45l2.07-4.97c0.11-0.27,0.16-0.55,0.15-0.83l-0.76-17.37
			c-0.05-1.19-1.19-2.13-2.58-2.13h-4.06c-0.8,0-1.56-0.32-2.05-0.87l-2.46-2.77c-1.3-1.46-0.09-3.56,2.05-3.56
			c0.42,0,0.82-0.09,1.19-0.25l6.72-3c0.85-0.38,1.39-1.14,1.39-1.96v-24.53c0-0.46-0.16-0.9-0.47-1.28l-10.86-13.25
			c-0.31-0.37-0.47-0.82-0.47-1.28v-8.16c0-0.98,0.75-1.84,1.85-2.12l5.6-1.43c1.3-0.33,2.08-1.47,1.78-2.61l-2.04-7.73
			c-0.04-0.14-0.06-0.28-0.06-0.42l-0.57-17.05c0-0.11-0.02-0.23-0.04-0.34l-2.11-9.77c-0.12-0.55-0.48-1.05-1.01-1.38l-9.27-5.87
			c-1.46-0.92-1.38-2.82,0.15-3.65l9.25-5.05c0.79-0.43,1.24-1.19,1.19-1.99l-1.83-29.55c-0.07-1.18-1.21-2.1-2.58-2.1
			c0,0-152.63,0-152.63,0c-5.07,0-10.13,0.04-15.2,0c-3.49-0.03-7.73-0.71-10.53,1.87c-1.82,1.68-2.45,4.27-2.71,6.73
			c-0.32,3.11-0.85,6.09-1.34,9.17c0.22,3.56,1.2,7.83,0.7,11.37c-0.74,5.3-14.14,9.88-5.73,15.06c1.89,1.16,2.11,1.8,3.72,3.3
			c2.22,2.06,2.67,5.23,3.01,8.16c1.13,9.85,0.21,19.7,1.34,29.55c0.12,1.04-0.63,2.02-1.79,2.33l-4.62,1.53
			c-0.88,0.24-1.51,0.96-1.61,1.82c-0.34,3.1-1.49,6.28-0.18,9.1c1.24,2.66,3.62,4.67,5.5,6.97c7.36,9.02,6.51,19.59,5.12,30.88
			c-0.07,0.55-0.38,1.06-0.86,1.43c-2.7,2.06-3.13,3.27-6.35,3.49c-1.52,0.1-2.74,1.34-2.7,2.79l0.14,3.84
			c0.03,0.88,0.78,1.58,1.7,1.58l5.81,1.04c1.31,0,2.4,0.84,2.56,1.95c1.2,8.2,0.69,18.79-1.47,26.68
			c-0.21,0.77-0.91,1.37-1.79,1.59l-2.84,0.71c-1.55,0.17-2.59,1.62-2.15,3.05c0.92,3,4.54,6.05,8.28,5.98
			c5.32-0.11,4.72-0.95,6.81-0.21c0.43,0.15,0.83,0.39,1.1,0.71c0.37,0.45,0.53,0.94,0.61,1.62c0.13,1.14,1.22,2.02,2.55,2.03
			c17.91,0.09,126.93,0.04,136.03,0.04h39.33c1.29,0,2.4-0.81,2.57-1.91c0.24-1.53,0.77-3.5,1.25-5.09
			C430.41,916.86,429.18,915.5,427.49,915.5z"/>
		<g>
			<line class="st57" x1="263.38" y1="752.72" x2="383.42" y2="752.72"/>
			<line class="st57" x1="258.65" y1="774.75" x2="390.89" y2="774.75"/>
			<line class="st57" x1="265.61" y1="796.78" x2="401.98" y2="796.78"/>
			<line class="st57" x1="257.59" y1="818.81" x2="393.95" y2="818.81"/>
			<line class="st57" x1="263.89" y1="840.83" x2="400.25" y2="840.83"/>
			<line class="st57" x1="263.74" y1="884.89" x2="400.1" y2="884.89"/>
			<line class="st57" x1="268.94" y1="906.92" x2="396.04" y2="906.92"/>
			<line class="st57" x1="267.88" y1="862.86" x2="393.95" y2="862.86"/>
		</g>
	</g>
	<g>
		<g>
			<path class="st18" d="M539.19,923.2c22.19,3.18,55.94,4.39,92.48-9.04c20.15-7.41,43.76-16.09,58.36-40.28
				c10.88-18.02,20.39-52.18,11.51-46.86c-2.06,1.23-104.81,14.39-104.81,14.39l0,0c0.66,3.36,1.22,8.48,0,14.39
				c-3.01,14.5-14.51,22.7-20.14,26.72c-26.16,18.65-63.11,7.75-68.23,6.17L539.19,923.2z"/>
			<g>
				<path class="st57" d="M611.04,853.12c9.39-0.53,17.22-1.03,22.89-1.41c13.68-0.91,21.78-1.45,32.4-2.47
					c8.2-0.79,14.91-1.57,19.37-2.11"/>
				<path class="st57" d="M609.99,868.97c12.88-0.22,26.15-0.67,39.8-1.41c10.58-0.57,20.91-1.28,30.99-2.11"/>
				<path class="st57" d="M599.77,882.35c8.4,0.51,17.09,0.88,26.06,1.06c12.89,0.26,25.23,0.1,36.98-0.35"/>
				<path class="st57" d="M583.22,892.57c7.77,1.48,16.37,2.73,25.71,3.52c11.32,0.96,21.73,1.07,30.99,0.7"/>
				<path class="st57" d="M563.68,900.69c2.4,1.07,5.03,2.14,7.88,3.15c4.16,1.48,8.09,2.58,11.67,3.42"/>
			</g>
		</g>
		<g>
			<path class="st15" d="M527.05,910.53c1,1.18,2.02,2.34,3.08,3.46c1.05,1.12,2.16,2.19,3.27,3.25l3.37,3.19
				c1.13,1.07,2.15,2.29,3.31,2.79l-0.13-0.05c0.94,0.22,1.94,0.48,2.8,0.57l2.99,0.28c1.99,0.18,3.99,0.33,5.98,0.46
				c3.99,0.27,7.98,0.46,11.97,0.53c7.99,0.15,15.98-0.11,23.93-0.86c7.95-0.75,15.85-2.04,23.6-3.96
				c7.76-1.91,15.35-4.53,22.63-7.91c-3.51,1.96-7.16,3.66-10.89,5.18c-3.72,1.53-7.54,2.84-11.42,3.94
				c-7.76,2.21-15.72,3.71-23.74,4.58c-8.02,0.88-16.1,1.18-24.16,1.01c-4.03-0.09-8.06-0.3-12.07-0.6
				c-2.01-0.17-4.01-0.35-6.02-0.56l-3-0.33c-1.13-0.16-2.07-0.44-3.07-0.74l-0.08-0.02l-0.05-0.02c-0.82-0.42-1.47-1-2.03-1.59
				l-1.58-1.72l-3.12-3.44c-1.03-1.16-2.01-2.37-2.96-3.61C528.74,913.13,527.86,911.85,527.05,910.53z"/>
		</g>
	</g>
	<g>
		<path class="st15" d="M248.68,925.13l90.06-0.68c15.01-0.08,30.02-0.29,45.03-0.27c7.5,0,15.01,0.1,22.51,0.18
			c3.75,0.04,7.5,0.08,11.26,0.17l5.63,0.11l2.78,0.05c0.78-0.02,1.59-0.43,1.89-1.09l-0.01,0.04c0.69-1.98,1.34-3.96,2.06-5.93
			l0.19,0.06c-0.44,2.05-0.95,4.08-1.42,6.12l0,0.01l-0.01,0.03c-0.43,1.12-1.57,1.69-2.63,1.77l-2.85,0.06l-5.63,0.11
			c-3.75,0.09-7.5,0.13-11.26,0.17c-7.5,0.09-15.01,0.19-22.51,0.19c-15.01,0.03-30.02-0.18-45.03-0.25l-90.06-0.64L248.68,925.13z"
			/>
	</g>
	<g>
		<path class="st18" d="M1281.74,415.58l-49.08-42.41c0,0-0.3-18.48,20.51-35.76c0.78-0.65,1.6-1.26,2.45-1.82
			c11.95-8.01,27.87-6.7,38.9,2.53l51.04,42.74c0,0-27.26,0.06-41.49,8.22C1289.98,397.16,1281.74,415.58,1281.74,415.58z"/>
		<path class="st18" d="M1311.89,385.61l22.35,18.54l10.15,8.42c13.87,11.5,34.79,8.24,44.28-7.08c0.12-0.19,0.24-0.39,0.36-0.59
			c6.29-10.4,7.99-22.13,7.99-22.13l-52.48-36.41c0,0-0.44,9.1-5.52,22.14C1333.98,381.42,1311.89,385.61,1311.89,385.61z"/>
		<line class="st57" x1="1248.38" y1="358.72" x2="1284.32" y2="390.89"/>
		<line class="st57" x1="1261.13" y1="346.03" x2="1296.01" y2="376.85"/>
		<line class="st57" x1="1281.01" y1="342.97" x2="1315.16" y2="371.15"/>
		<path class="st15" d="M1355.24,418.31c-3.17-2.41-5.15-6.55-6.86-10.03c-1.84-3.72-3.42-7.57-4.86-11.46
			c-1.77-4.79-6.41-8.86-10.82-11.19c-2.06-1.09-4.3-1.9-6.61-2.16c-2.21-0.25-4.45,0-6.64,0.4c-4.04,0.73-7.98,1.96-11.77,3.53
			c-3.4,1.41-7.03,3.09-9.45,5.98c0.89,0.46,2.11,0.64,3.09,0.94c1.95,0.59,3.89,1.21,5.81,1.88c4.95,1.72,9.87,3.69,14.44,6.27
			c0.89,0.5,1.76,1.03,2.61,1.59C1333.86,410.46,1355.24,418.31,1355.24,418.31"/>
		<line class="st57" x1="1349.55" y1="369.09" x2="1378.4" y2="389.37"/>
		<line class="st57" x1="1368.08" y1="403.16" x2="1354.79" y2="392.43"/>
	</g>
	<g>
		<polygon class="st15" points="983.32,228.89 912.55,262.35 913.66,247.54 916.48,232.15 921.69,218.72 939.28,206.76 		"/>
		<path class="st18" d="M1012.26,294.46c12.92-7.28,21-8.04,64.61-48.28c-15.15-2.28-22.55-2.76-31.99-15.09
			c-6.77-8.84-8.98-20.01-14.49-29.58c-6.28-10.92-17.08-27.45-31.04-28.39c-13.28-0.89-27.14,8.37-38.03,14.73
			c-20.13,11.75-40.76,19.45-46.92,47.87c-1.64,7.57-1.85,24.5-1.85,24.5s-0.04,2.66,0.01,2.15c0.68-7.68,1.68-17.21,2.03-19
			c2.69-13.69,4.99-21.33,14.45-25.82c5.96-2.83,12.98-3.11,19.62,1.18c7.84,5.06,12.58,21.81,16.39,29.9
			c4.01,8.53,8.01,15.13,13.99,22.38C992.69,287.58,1012.26,294.46,1012.26,294.46z"/>
		<path class="st57" d="M1042.96,247.43c-5.38,4.72-11.48,9.65-18.34,14.58c-5.97,4.29-13.59,10.88-19.04,14.13"/>
		<path class="st57" d="M1029.6,235.08c-2.63,1.57-6.81,4.15-11.85,7.59c-5.31,3.63-7.73,5.6-13.81,9.88
			c-2.8,1.97-7.01,4.88-12.31,8.31"/>
		<path class="st57" d="M1013.13,201.31c-5.6,3.75-11.38,7.52-17.33,11.29c-7.7,4.87-15.25,9.46-22.62,13.79"/>
		<path class="st57" d="M1021.36,217.94c-5.6,3.75-11.38,7.52-17.33,11.29c-7.7,4.87-15.25,9.46-22.62,13.79"/>
		<path class="st57" d="M1000.09,189.13c-9.33,4.59-19.18,10.01-29.31,16.44c-3.98,2.52-7.79,5.07-11.43,7.62"/>
	</g>
	<g>
		<path class="st18" d="M212.81,317.6c0.54,5.04,9.74,6.01,21.79,17.23c5.02,4.68,9.39,12.91,11.98,25.98
			c1.64,8.29,0.3,15.08,4.14,19.49c1.3,1.49,13.59-1.84,19.95-4.62c35.21-15.41,59.02-39.89,68.14-49.73
			c10.78-11.64,27.46-38.4,24.56-41.15c-2.5-2.37-7.13-2.64-10.35-3.56c-2.48-0.88-6.75-1.59-23.15-13.43
			c-16.12-11.64-19.03-26.46-22.42-28.52c-2.05-1.25-9.06,10.81-21.89,25.51c0,0-14.75,16.63-25.32,24.36
			C231.78,309.97,212.81,317.6,212.81,317.6z"/>
		<path class="st57" d="M243.91,316.33c3.37,1.93,8.18,5.8,11.26,9.38c13.32,15.47,13.92,28.76,15.25,37.15"/>
		<path class="st57" d="M255.93,308.29c5.44,4.85,10.77,10.47,16.99,19.23c6.71,9.44,11.02,19.35,13.85,26.46"/>
		<path class="st57" d="M266.99,299.38c7.85,7.29,12.78,12.1,19.96,20.89c6.48,7.94,11.72,15.75,16.04,22.77"/>
		<path class="st57" d="M280.22,289.2c4.63,5.82,11.92,13.7,18.79,20.2c7.45,7.05,14.78,15.52,21.29,20.02"/>
		<path class="st57" d="M292.13,279.32c4.82,6.55,13.77,17.26,23.42,24.8c5.51,4.31,10.85,7.65,15.65,10.26"/>
		<path class="st57" d="M302.46,269.66c1.46,2.26,3.39,4.86,5.9,7.52c2.95,3.12,5.88,5.45,8.36,7.15"/>
	</g>
	<g>
		<g>
			<path class="st18" d="M535.63,164.21c-0.12-0.13-0.21-0.29-0.25-0.46c-0.08-0.36,0.05-0.72,0.19-1.07
				c2.16-5.43,5.44-11.7,8.41-16.75c3.1-5.82,6.52-11.81,10.69-16.93c5.43-6.67,10.09-9.74,17.52-14.11
				c3.78-2.22,9.78-4.96,13.98-6.25c3.7-1.14,7.57-4.48,11.44-3.46c1.35,0.35,2.55,1.11,3.73,1.86
				c15.82,10.11,26.63,20.81,41.8,31.85c13.98,10.18,28.57,19.3,43.06,28.63c0.72,0.46,0.73,1.51,0.02,1.98
				c-4.52,3.02-11.7,5.66-18.24,10.14c-6.19,4.24-18.15,16.12-22.33,22.35c-4.91,7.3-12.27,20.28-18.89,26.05
				c-0.93,0.91-15.47-11.59-16.34-12.36c-6.59-5.8-13.03-10.77-20.41-15.55c-6.7-4.34-12.81-9.53-19.38-14.07
				c-12.14-8.39-21.59-13.74-34.26-21.3C536.1,164.61,535.83,164.43,535.63,164.21z"/>
			<g>
				<path class="st57" d="M594.52,124.05c-13.14,6.18-20.03,9.81-28.14,22.22c-2.26,3.46-4.77,7.1-7.71,13.81"/>
				<path class="st57" d="M571.25,166.9c1.57-2.78,8.48-14.45,16.94-22.44c4.34-4.1,10.46-7.86,20.72-12.42"/>
				<path class="st57" d="M584.86,177.38c3.88-8.88,9.91-18.15,13.74-22.9c4.76-5.92,14.78-12.05,22.04-13.62"/>
				<path class="st57" d="M630.72,148.67c-9.17,3.69-16.02,9.9-21.1,16.36c-3.34,4.25-9.7,14.3-12.67,20.95"/>
				<path class="st57" d="M644.02,158.03c-5.33,3.12-15.33,8.55-19.67,15.09c-6.43,9.68-9.53,13.54-13.11,21.5"/>
				<path class="st57" d="M657.91,168.37c-5.42,2.71-9.89,4.54-13.61,7.95c-3.09,2.83-4.44,5.38-7.21,8.92"/>
			</g>
		</g>
		<g>
			<path class="st15" d="M673.12,159.08c0.93,0.74,1.93,1.35,2.94,1.97l3.03,1.85c1.01,0.62,1.97,1.33,2.92,2.07
				c0.94,0.75,1.87,1.5,2.72,2.37l0.02,0.02l0.01,0.04c0.16,0.47,0.02,1.02-0.27,1.39c-0.28,0.38-0.65,0.67-1.01,0.94
				c-0.73,0.54-1.53,0.96-2.31,1.38c-1.56,0.84-3.21,1.52-4.52,2.56c-1.41,1.16-3,1.98-4.5,2.86c-1.5,0.88-2.9,1.88-4.14,3.16
				l-0.08-0.06c0.89-1.56,2.26-2.84,3.72-3.86c1.46-1.05,3-1.9,4.4-2.88c1.52-1.11,3.22-1.7,4.84-2.37
				c0.81-0.33,1.62-0.67,2.36-1.11c0.7-0.43,1.46-1.1,1.22-1.91l0.03,0.06c-0.81-0.84-1.83-1.46-2.84-2.06
				c-1.02-0.6-2.06-1.17-3.05-1.82c-0.99-0.65-1.99-1.31-2.94-2.04c-0.94-0.73-1.89-1.49-2.62-2.46L673.12,159.08z"/>
		</g>
	</g>
	<path class="st19" d="M766.51,408.62c8.5,0.54,11.86,3.28,17.99,1.02c6.31-2.33,6.19-2.88,10.95-1.83
		c3.72,0.82,7.62,3.99,8.85,7.83c2.36,7.38-6.72,12.25-15.66,28.6c-7.22,13.2-10.89,27.54-11.23,28.94
		c-3.09,12.36-2.59,18.91-7.49,21.45c-4.91,2.54-11.97-0.65-16-3.74c-12.36-9.49-10.93-29.43-9.87-44.26
		c0.81-11.31,2.07-26.14,12.26-33.7C758.19,411.51,761.32,408.29,766.51,408.62z"/>
	<path class="st10" d="M767.08,879.64c-0.35,3.31,0.87,4.53,0.17,10.05c-0.89,7.03-4.79,9.83-7.19,12.07
		c-2.16,2.01-2.57,3.23-0.47,2.76c0.95-0.22,7.06,0.9,17.83,3.49c5.4,1.3,9.07,3.63,10.93,1.76c0.61-0.61-0.07,0.03,0.31-4.16
		c0.2-2.23,0.8-4.16,0.25-5.6c-0.56-1.47-1.03-3.03-1.36-4.77c-0.56-3.02,1.51-7.57,2.28-15.9"/>
	<path class="st10" d="M689.79,438.8c-2.89-5.93-7.88-13.8-12.15-18.85c-7.99-9.44-8.96-11.54-16.7-18.24
		c-6.19-5.35-11.44-10.45-19.51-20.2l-19.03,9.39c4.59,7.98,11.22,18.85,16.69,26.93c11.91,17.6,16.48,24.19,31.66,41.8
		c1.63,1.89,3.97,4.97,5.43,7c0.64,0.89,1.09,1.94,1.73,2.81c2.06,2.78,4.8,3.82,7.94,2.62c4.32-1.65,10.46-5.41,16.28-8.28"/>
	<path class="st58" d="M685.84,443.01c-1.6,0.03-3.26-8.4-11.82-19c-3.17-3.92-9.65-15.01-16.12-20.17
		c-7.09-5.65-12.28-10.82-19.4-22.32"/>
	<path class="st58" d="M634.29,383.44c1.11,2.27,4.8,6.61,6.16,9c2.85,4.98,5.86,9.05,10.59,14.22c6.75,7.37,11.4,12.18,17.13,18.6
		c7.72,8.66,13.16,24.1,16.16,24.23"/>
	<path class="st58" d="M629.87,386.36c3.65,5.89,5.86,7.23,7.8,10.56c5.66,9.7,7.5,11.28,11,15.35c2.96,3.44,4.41,6.14,11.5,13.68
		c3.84,4.08,5.28,8.78,10.63,15.13c4.65,5.52,10.88,14.92,14.19,17.36"/>
	<path class="st58" d="M626.18,389.83c10.37,14.12,17.41,26.99,20.26,30.12c3.81,4.18,4.47,6.33,11,13.94
		c3.84,4.47,3.07,4.2,9.47,11.98c3.58,4.35,7.54,8.47,11.28,13.17c2.26,2.84,3.2,8.39,6.13,7"/>
	<g>
		<path class="st10" d="M761.14,389.88c-7.84,1.5-17.02,2.95-21.52,6.48c-10.44,8.19-14.98,11.64-28.29,22.02
			c-11.38,8.88-24.83,17.76-23.91,19.31c2.05,3.44-1.91,24.02-0.52,28.91c0.17,0.61-4.1,6.7-1.91,5.74
			c9.64-4.21,23.51-10.95,27.87-13.04c20.49-9.8,22.44-11.66,36.48-25.86C756.53,426.18,769.1,388.36,761.14,389.88z"/>
	</g>
	<path class="st58" d="M764.48,392.18c-1.93,0.8-4.09,1.59-6.48,2.3c-1.37,0.41-2.7,0.76-3.97,1.05c-1.98,0.46-9.09,2.2-10.62,3.54
		c-0.29,0.26-6.63,5.95-6.92,6.22c-7.86,7.37-8.33,6.88-13.6,11.53c-2.73,2.41-11.19,8.72-13.51,10.63
		c-1.79,1.47-21.64,12.83-24.4,16.87"/>
	<path class="st58" d="M684.33,450.44c4.11-4.04,15.55-9.28,20.66-12.58c3.68-2.38,8.21-5.23,18.39-12.89
		c5.08-3.82,14.15-9.73,21.92-15.86"/>
	<path class="st58" d="M685,458.44c5.88-7.03,18.17-10.63,25.43-15.09c4.19-2.57,11.03-6.62,18.41-12.72
		c4.59-3.79,9.42-5.56,11.96-7.77"/>
	<path class="st58" d="M684.33,466.03c3.09-1.95,9.37-6.15,13.06-8.26c5.45-3.12,8.77-3.18,17.34-8.28
		c7.31-4.35,20.23-12.75,21.77-14.65"/>
	<g>
		<path class="st10" d="M745.3,399.21c-3.64,9.89-4.51,15.15-8.79,23.82c-7.11,14.42-7.56,13.1-11.53,22.69
			c-2.66,6.44-0.13,18.26,0.14,19.47c1.88,8.57,4.03,14.91,6.35,22.92c3.07,10.6,1.95,16.5,2.38,21.78
			c0.65,8.03,1.89,17.78,0.9,24.28c-1.38,9.01,0.17,15.77,2.09,23.49c1.13,4.52,17.58,0.45,19.21,0.29
			c19.33-1.92,42.23,3.42,43.54-1.91c0.38-1.53,0.16-2.27,0.73-4.98c0.53-2.52,2.61-3.73,3.55-4.28c3.84-2.27,5.87-5.75,10.47-15.81
			c5.42-11.86,8.83-26.11,10.64-36.42c4.01-22.88,2.57-28.31,4.42-35.45c2.94-11.31,5.32-25.64,5.47-26.78
			c0.78-5.9,1.45-21.14-2.31-26.09l-11.03-7.18c-1.59-1.13-10.97-5.96-12.7-6.87c0,0-3.59-1.6-3.59-1.6
			c-4.05,8.31-7.05,16.62-11.1,24.93c-4.38,8.98-10.08,10.87-14.46,19.85c-3.28,6.72-5.23,20.54-8.51,27.27
			c-2.96,6.07-5.91,12.13-8.87,18.2c-1.51,3.1-1.96,6.37-3.84,9.22c-0.24-5.58-0.57-10.95-0.96-16.58c-0.4-5.94-2.58-12.65-2.4-18.6
			c0.28-9.25,3.95-17.56,6.47-26.44c1.18-4.17,6.06-19.26,5.44-20.15C766.99,408.26,745.3,399.21,745.3,399.21z"/>
	</g>
	<path class="st7" d="M789.69,899.69c0.38,1.39,0.87,2.75,1.14,4.17c0.9,4.71,0.51,9.62,0.45,14.38c-0.01,0.46-0.08,7.45-0.1,7.45
		c0,0-15.24,0-15.24,0s-0.07-5.95-0.07-5.95c-2.12,1.11-4.32,2.05-5.86,3.96c-1.16,1.42-1.83,1.77-3.57,1.84
		c-1.49,0.07-2.99,0.13-4.48,0.2c-2.21,0.1-4.43,0.19-6.64,0.29c0,0-4.63,0-12.79-0.56c-4.46-0.31-10.82-0.43-14.8-4.41
		c-2.43-2.43-0.18-4.94,2.26-7.33c0.98-0.96,2.59-2.09,3.81-2.7c4.59-2.3,5.95-2.73,10.38-2.87c4.05-0.13,5.09-0.3,8.17-2.91
		c0.78-0.66,7.5-7.65,10.45-9.7l6.65,3.75L789.69,899.69z"/>
	<g>
		<path class="st7" d="M752.9,319.81c-1.07,2.67-3.76,11.6-3.64,16.41c0.14,5.82,2.13,6.88,2.49,11.61
			c0.81,10.51-7.94,18.69-6.23,19.38c0.94,0.39,3.98-1.96,5.87-4.21c3.13-3.71,3.34-7.39,3.44-10.13
			c0.17-4.82,0.11-11.31-0.75-19.14"/>
		<path class="st23" d="M801.63,315.32c-3.4-0.83-8.11-1.95-14.3-2.17c-6.14-0.21-26.88-0.95-33.18,9.64
			c-1.35,2.28-0.81,6.21-0.2,13.76c0.92,11.43,0.78,16.69,1.85,23.72c1.71,11.26,3.8,12.96,4.6,14.46c0.48,0.89,2.72,3.91,7.15,8.04
			c3.62,3.37,9.03,8.58,15.61,8.6c2.24,0,2.85-0.59,7.44-3.31c10.68-6.33,16.31-15.01,17.78-17.41c7.49-12.19,6.34-30.4,3.55-44.01
			C810.77,320.98,812.76,318.04,801.63,315.32z"/>
		<path class="st23" d="M801.47,378.6c-0.59,2.67-1.65,8.27-0.49,12.15c1.42,4.72,5.89,8.35,4.93,10.4
			c-0.79,1.7-4.95-0.03-9.92,0.87c-4.34,0.78-6.62,6.32-13.4,8.68c-7.26,2.53-19.95-3.14-19.64-5.57
			c1.19-9.42,0.32-10.08,3.27-12.77c3.32-3.03,4.2-3.41,4.09-9.74"/>
		<path class="st7" d="M766.55,319.24c1.34,0.25,2.69,0.4,4.18-0.01c2.5-0.68,4.63-1.92,7.27-2.18c0.49-0.05,8.94-0.44,13,4.12
			c3.88,4.35,1.66,10.96,5.33,15.64c2.67,3.41,7.21,4.8,11.53,5.13c2,0.15,3.91,1.44,5.13,3.02c0.71,0.93,1.12,2.56,1.7,3.58
			c1.25,2.19,4.37,1.32,6.82,0.7c2.03-0.51,7.69-2.22,8.56-4.27c0.9-2.11-0.09-1.67-0.87-3.6c-2-4.92-2.29-8.75-0.79-13.93
			c0.71-2.46,0.5-4.92,0.76-7.47c0.48-4.79-2.22-8.71-3.76-13.06c-1.19-3.36-1.71-6.95-3.22-10.17c-1.88-4-5.31-7.21-9.36-8.94
			c-5.03-2.14-10.46-0.85-15.69-1.92c-5.67-1.16-11.09-5.02-16.73-3.73c-4.19,0.96-7.11,4.42-10.82,6.33
			c-4.08,2.1-8.96,1.87-12.93,4.24c-2.11,1.26-3.8,3.23-4.73,5.51c-1.92,4.71-0.92,10.01-2.83,14.77
			c-1.83,4.58-3.69,8.82-2.45,13.84c0.84,3.4,1.66,6.8,2.55,10.19c0.49,1.88,0.79,4.9,2.12,6.34c2.12-1.84,1.83-7.29,1.97-9.91
			c0.18-3.18,0.42-6.44,1.78-9.32c1.36-2.88,4.09-5.33,7.27-5.44C763.83,318.65,765.19,318.99,766.55,319.24z"/>
		<path class="st7" d="M830.9,344.98c0.87,3.89,1.39,4.48,2.38,5.99c1.35,2.08,1.75,2.13,3.98,4.45c0.54,0.56,1.89,2.82,2.22,6.07
			c0.32,3.2-1.5,4.03-1.52,7.15c-0.02,3.17,2.65,4.72,4.5,8.02c2.11,3.75,3.96,7.85,3.47,12.57c-0.11,1.03-0.64,6.07-4.77,9.1
			c-1.24,0.91-3.58,2.66-4.55,1.95c-1.2-0.87,1.14-4.37-0.43-8.02c-0.49-1.14-1.15-1.79-2.17-2.82c-2.64-2.67-4.83-3.14-7.15-4.55
			c-3.91-2.38-7.2-6.36-7.3-11.09c-0.06-2.84,0.94-5.57,1.61-8.32c1.27-5.21,0.38-10.98-5.37-12.6"/>
		<path class="st7" d="M760.53,305.52c-0.33-0.24-5.42-3.82-10.37-0.96c-4.1,2.37-12.75,14.86-11.92,19.17
			c1,5.18,5.76,6.14,6.87,12.26c0.63,3.44-0.33,6.37-0.33,6.37c-0.89,3.11-2.56,4.5-2.17,5.12c0.45,0.71,3.36,0.02,5.16-2.25
			c2.86-3.62,1.78-9.84,1.57-11.1c-0.89-5.16-2.99-6.12-2.41-9.26c0.49-2.62,2.52-5.02,5.05-5.7c1.9-0.5,3.52,0.12,4.2,0.44"/>
		<path class="st7" d="M763.48,316.93c5.83,2.06,12.1,4.45,15.38,9.68c3.77,6,2.5,17.35,10.98,19.46c2.23,0.55,6.1,0.53,7.68-1.22
			c-3.02,0.29-5.93-1.56-7.7-4.03c-1.76-2.47-2.58-5.48-3.24-8.43c-0.66-2.96-1.22-5.99-2.58-8.7c-3.18-6.35-9.68-8.57-16.19-9.88"
			/>
		<g>
			<path class="st46" d="M774.11,389.04c1.03,0.5,1.97,1.04,2.98,1.47c1,0.43,2.03,0.78,3.07,0.97c1.04,0.2,2.07,0.25,3.05,0.05
				c1.01-0.19,2-0.57,2.96-0.99c1.94-0.88,3.62-2.23,5.48-3.31c1.86-1.1,3.73-2.22,5.79-3.24l0.17,0.17
				c-0.56,1.04-1.28,1.94-2.05,2.77c-0.77,0.84-1.62,1.61-2.53,2.31c-1.79,1.43-3.98,2.3-6.17,3.07c-1.12,0.35-2.25,0.65-3.45,0.74
				c-1.22,0.11-2.44-0.07-3.54-0.43c-2.22-0.73-4.11-2.05-5.86-3.36L774.11,389.04z"/>
		</g>
		<path class="st7" d="M804.82,339.98c0.53,1.4,1.24,3.4,1.95,5.85c0.83,2.85,1.24,4.27,1.39,5.57c0.65,5.45-2.05,8.78-2.37,13.93
			c-0.16,2.56,0.3,4.99,0.3,4.99c0.03,0.16,0.11,0.59,0.25,1.14c0.65,2.59,1.96,5.54,2.37,5.43c0.5-0.13-1.62-4.59-0.84-10.59
			c0.51-3.85,1.69-4.4,3.06-10.72c0.62-2.89,0.97-4.5,0.97-6.55c0-2.34-0.44-6.59-3.76-11.7"/>
		<path class="st23" d="M796.65,349.64c0.19-1,0.55-2.43,1.27-4.03c0.95-2.12,2.06-4.59,4.63-5.97c0.64-0.35,3.56-1.8,6.13-0.67
			c3.85,1.7,5.48,8.58,3.42,12.83c-1.7,3.49-5.99,5.4-6.87,8.88c-0.07,0.28-0.23,1.02-0.84,1.39c-1.06,0.64-3.07,0.12-4.03-1.13
			c-1.03-1.33-0.26-2.69-0.56-5.61c-0.21-2.04-0.82-3.64-1.25-4.6"/>
		<path class="st7" d="M807.03,372.71c0.99-1.36,0.95-1.42,1.34-2.05c3.29-5.36,4.92-11.89,5.46-18.67
			c-0.79-0.16-1.19,0.95-1.91,1.23c-1.36,0.52-3.37,1.01-4.61,10.76C806.84,367.76,807.13,370.16,807.03,372.71z"/>
		<path class="st17" d="M807.01,348.61c0.42-1.43,1.06-2.25,1.31-2.61c1.01-1.51,2.03-2.14,3.87-2.35c2.32-0.26,4.24,0.53,6.56,0.26
			c2.62-0.3,4.44-1.22,6.37-3.03c0.98-0.92,1.23-2.36,2.25-3.24c1.77-1.54,6.66-1.47,8.51,0.56c0.94,1.03,1.38,2.29,1.52,3.25
			c0.28,1.97,0.3,3.55-0.99,5.22c-1.09,1.41-3.66,1.87-5.07,2.82c-1.96,1.32-2.74,3.38-4.5,4.91c-2.1,1.82-4.33,2.05-6.97,1.56
			c-1.3-0.24-1.37-0.31-2.7-0.38c-1.74-0.1-3.28,0.53-4.99,0.6c-1.71,0.07-3.42-0.82-4.35-2.26
			C806.75,352.27,806.38,350.74,807.01,348.61z"/>
	</g>
	<path class="st58" d="M759.26,398.24c-3.59,0.93-9.3,4.56-9.3,4.56c-1.66,8.54-6.77,18.21-8.3,21.55
		c-4.9,10.75-10.71,18.66-10.16,29.67c0.25,5.04,0.44,11.93,1.58,16.78c1.89,8.02,1.98,8.35,3.61,14.56
		c2.1,8.03,2.4,14.24,2.72,20.68c0.7,14.37-0.64,15.78,0.56,39.21c0.26,5.08,1.26,10.26,2.23,12.67"/>
	<path class="st58" d="M760.31,402.83c-1.56,1.26-3.7,3.28-5.43,6.27c-2.07,3.56-2,5.82-3.76,11.07c-1.14,3.39-1.5,3.45-4.39,10.03
		c-3.17,7.21-4.75,10.82-5.64,14c-1.95,6.97-1.57,12.65-1.04,19.43c0.59,7.68,1.62,8.36,3.55,19.64c1.01,5.89,2.36,13.96,2.72,24.24
		c0.17,4.75,0.45,12.74-0.63,22.56c-0.34,3.14-0.59,8.01-0.32,14.1c0.31,7.1,1.57,9.39,1.36,14.62"/>
	<path class="st58" d="M808.01,399.21c1.67,1.18,3.8,2.94,5.85,5.43c2.35,2.85,3.75,5.62,4.6,7.66"/>
	<path class="st58" d="M761.14,408.26c-0.65,2.63-1.77,6.83-3.55,11.91c-1.89,5.37-3.09,7.67-5.01,12.95c0,0-2.61,7.16-4.18,13.58
		c-2.49,10.18-0.2,16.43,1.46,30.92c1.67,14.62,1.4,26.25,1.25,31.55c-0.33,12.12-1.55,19.71-0.63,34.47
		c0.25,4.03,0.7,11.42,1.41,14"/>
	<g>
		<path class="st10" d="M766.67,395.73c0.53-5.52,2.3-2.66,3.44-8.85c0,0-4.8,0.98-8.97,2.02c-2.98,0.74-4.13,9.32-4.39,11.78
			c-0.41,3.96,0,8.01,2.69,11.02c1.61,1.81,3.11,5.91,5.4,6.8c4.22,1.65,6.54-7.32,8.06-10.81
			C773.86,405.51,765.85,404.2,766.67,395.73z"/>
	</g>
	<path class="st59" d="M759.17,482.65c-0.4,8.66-1.25,20.67-1.16,25.42c0.25,13.08,1.22,20.27,0.56,33.25
		c-0.23,4.53,0.27,13.16,0.02,15.49"/>
	<path class="st58" d="M802.92,405.03c1.9,7.17-6.78,17.02-15.14,30.33c-4.1,6.53-5.69,18.32-8.62,25.97
		c-2.33,6.08-6.2,14.08-8.35,19.43c-2.74,6.85-5.21,13.28-4.87,20.27c0.78,16.4,1.13,37.19-1.15,55.59"/>
	<path class="st58" d="M807.03,403.97c2.19,6.93,1.34,9.72-0.33,13.48c-4.51,10.15-6.31,10.54-10.56,20.89
		c-2.53,6.17-8.11,20.41-12.51,29.39c-2.41,4.92-6.51,20.57-7.66,24.63c-1.54,5.47-1.79,12.47-1.91,21.4
		c-0.22,15.56,0.6,20.78-0.73,25.85c-0.71,2.71-0.39,5.99-0.35,11.77c0.03,3.75-0.99,7.61-0.49,9.68"/>
	<line class="st60" x1="561.24" y1="557.51" x2="886.45" y2="434.86"/>
	<path class="st58" d="M810.18,396.08c3.06,2.55,16.63,8.95,17.61,13.02c1.33,5.53-10.17,13.57-10.97,15.25
		c-7.13,15.07-9.12,22.86-16.47,37.82c-10.44,21.25-18.62,46.11-19.02,70.06c-0.08,4.54-1.15,8.41-2.36,12.79
		c-1.56,5.64-0.52,10.05,1.05,15.48"/>
	<g>
		<path class="st10" d="M809.88,392.17c-2.54-1.71-5.52-2.79-7.81-3.87c-4.08-1.91,1.74,4.04-1.84,7.97
			c-5.01,5.49-19.33,6.78-20.84,10.43c-0.46,1.1-0.24,1.55,1.4,6.79c0.94,3.01-0.01,5.96,4.29,4.63c1.12-0.35,6-3.22,7.05-3.72
			c5.58-2.69,5.87-2.03,10.8-6.09C807.65,404.4,811.24,398.5,809.88,392.17z"/>
	</g>
	<path class="st58" d="M789.59,526.78c0.74,5.43-2.55,9.47-2.97,12.33c-0.46,3.16-2.1,5.32-2.72,9.03
		c-0.79,4.74,0.55,6.74,0.59,9.24"/>
	<path class="st58" d="M799.83,512.31c1.7,7.58-4.01,19.09-6.42,24.75c-3.6,8.44-4.44,12.34-3.41,18.99"/>
	<path class="st58" d="M809.14,497.51c0.3,6.51-2.06,13.68-2.04,17.94c0.03,5.03-2.19,8.31-4.02,12.91
		c-1.18,2.97-1.52,6.25-2.96,9.1c-3.47,6.85-8.37,10.06-6.2,18.6"/>
	<path class="st58" d="M820.69,471.36c0.07,6.95-2.77,18.93-3.91,30.24c-0.7,7.01-3.06,14.89-3.62,18.44
		c-0.48,3.07-2.18,8.64-5.57,14.14c-1.03,1.67-2.29,3.84-3.13,5.6c-0.98,2.05-2.45,3.14-3.94,4.75c-2.89,3.11-4.04,7.39-3.11,11.53"
		/>
	<g>
		<path class="st10" d="M780.92,504.33c1.04,2.9,5.03,8.65,6.47,14.82c1.36,5.82,10.11,5.32,8.85,5.99
			c-6.66,3.52-16.19,5.24-18.6,5.73c-25.41,5.27-39.26,7.7-47.43,9.06c-11.61,1.93-20.48,5.14-33.85,7.2
			c-6.64,1.02-7.98-16.14-3.7-18.48c6.85-3.74,12.61-3.74,39.35-13.94c7.01-2.68,19.64-6.88,30.93-9.35
			C772.24,503.31,780.35,502.74,780.92,504.33z"/>
	</g>
	<g>
		<path class="st10" d="M830.71,405.03c-7.23-2.46-15.98,4.85-20.99,11.34c-5.05,6.53-15.83,37.19-22.16,52.91
			c-10.02,24.86-11.13,33.63-14.51,34.15c-5.08,0.79-4.2,30.69,15.26,24.35c10.17-3.32,10.17-1.46,16.52-14.01
			c6.06-11.96,10.83-19.84,16.94-37.17c10.38-29.46,15.75-39.29,15.78-53.97C837.56,414.14,835.47,406.65,830.71,405.03z"/>
	</g>
	<path class="st10" d="M682.75,886.58c-2.32,4.15-2.74,7.44-2.67,9.71c0.05,1.74,0.76,3.91,0.73,8.09c-0.02,1.83-0.04,3.05-0.73,3.4
		c-0.97,0.49-3.02-1.32-4.85-2.51c-3.16-2.05-5.49-1.01-16.5-1.46c-5.34-0.22-6.6-0.53-7.04-1.46c-0.81-1.7,1.84-4.04,4.13-7.52
		c2.01-3.07,4.17-7.7,4.85-14.56"/>
	<g>
		<path class="st14" d="M726.73,695.64c3.61,7.34,2.77,5.27-2.55,24.36c-2.96,10.62-9.15,35.14-10.77,47.83
			c-2.82,22.16-6.59,39.75-12.07,73.92c-2.6,16.2-3.77,24.92-8.66,49.17c-0.17,0.82-0.95,1.38-1.78,1.26l-11.83-1.74
			c-9.77-0.74-18.34,0.23-28.93-3.68l-9.47-3.35c-1.98-0.67-2.16-4.18-1.86-6.25l15.31-105.47l6.61-48.87
			c1.52-3.49,15.19-31.52,40.55-34.61C709.13,687.24,723.02,688.12,726.73,695.64z"/>
		<path class="st12" d="M735.84,699.61c1.25,5.85,1.57,12.37,2.52,18.4c1.15,7.25,2.12,14.53,2.92,21.82
			c1.62,14.85,2.49,29.77,2.62,44.71c0.14,16.24,0.06,33.39,0.95,49.67c0.88,16.09,0.35,31.16,0.43,47.26
			c0.01,2.94,15.37,7.64,21.17,7.82c1.91,0.06,3.81,0.22,5.71,0.49c6.01,0.84,16.63,1.66,27.84-0.53c1.03-0.2,1.79-67.77,1.59-74.24
			c-0.78-24.86-2.18-49.55-0.36-74.31c0.2-2.75,0.42-5.5,0.64-8.25c0.98-12.3,1.96-24.59,2.94-36.89
			c2.28-28.62,4.36-57.29,6.63-85.88"/>
		<path class="st14" d="M799.17,554.64c0.43,0.38,0.72,0.9,1.09,1.66c1.2,2.48,2.32,5,3.35,7.56c2.6,6.49,4.6,13.21,5.97,20.06
			c1.47,7.35,6.75,23.97,0.03,45.39c-1.99,6.34-6.93,19.62-41.93,55.47c-28.58,29.27-25.58,25.87-39.82,43.86
			c-11.68,14.76-26.58,28.93-33.72,44.89c-8.01,17.91-8.15,27.86-12.72,28.24c-7.9,0.65-18.76-28.21-19.86-54
			c-0.71-16.51-1.41-24-0.09-28.24c4.42-14.26,22.83-47.21,26.47-54c20.48-38.17,21.74-43.45,34.04-67.6
			c4.27-8.38,10.21-23.8,15.73-40.08c0,0,7.31-0.1,9.4-0.1c1.51,0,4.13-0.09,5.63-0.26c1.88-0.21,3.76-0.42,5.65-0.62
			c11.39-1.26,22.77-2.98,34.23-3.39c1.62-0.06,3.27-0.06,4.85,0.35C798.26,554.04,798.78,554.28,799.17,554.64z"/>
	</g>
	<path class="st58" d="M794.67,520.19c-4.32,1.32-6.89,3.34-10.02,4.45c-4.23,1.5-13.91,3.37-26.65,6.23
		c-14.79,3.33-37.04,8.23-37.04,8.23c-10.01,2.21-11.84,2.93-24.07,5.54"/>
	<path class="st58" d="M829.1,405.03c4.46,6.83,4.95,11.69,4.37,17.96c-1.32,14.34-6.37,28.21-15.65,49.86
		c-10.45,24.38-22.3,45.64-23.15,47.34"/>
	<g>
		<path class="st10" d="M621.82,396.43c-1.88-8.52-6.89-10.1-7.98-18.72c-0.03-0.25-0.06-0.51,0-0.74c0.07-0.24,0.24-0.42,0.41-0.58
			c4.72-4.6,10.4-8.11,16.39-10.16c0,0,0.55-0.49,3.72,2.74c2.09,2.13,4.05,6.62,6.09,8.33c2.24,1.88,4.78,5.33,4.78,5.34
			c-0.29-0.33-5.04,0.96-5.19,1c-4.2,1.37-5.22,2.23-7.9,3.53c-2.95,1.43-4.21,3.38-6.73,5.36
			C623.36,394.17,624.1,394.04,621.82,396.43z"/>
	</g>
	<circle class="st7" cx="624.72" cy="376.2" r="1.8"/>
	<g>
		<path class="st11" d="M624.82,392.9c0.49-0.81,1.17-1.45,1.83-2.09c0.67-0.63,1.37-1.23,2.07-1.83c1.39-1.16,2.81-2.39,4.41-3.37
			c1.58-0.98,3.19-1.98,4.98-2.53c0.89-0.29,1.8-0.52,2.73-0.68c0.92-0.15,1.89-0.24,2.84-0.07l0,0.16
			c-1.73,0.58-3.35,1.36-4.99,2.09c-1.62,0.75-3.32,1.34-4.91,2.17c-1.6,0.8-3.05,1.85-4.57,2.89c-1.49,1.04-3.07,2-4.26,3.35
			L624.82,392.9z"/>
	</g>
	<path class="st58" d="M824.69,405.29c5.47,6.77,2.12,19.71,1.77,21.27c-1.55,6.95-4.39,13.51-6.79,20.19
		c-2.17,6.04-4.04,12.07-6.58,17.99c-5.77,13.49-7.66,20.01-9.91,26.27c-3.31,9.2-10.53,21.7-11.47,24.2"/>
	<path class="st58" d="M695.54,540.75c8.02-2.21,20.85-6.27,36.98-9.63c10.98-2.29,30.96-7.42,44.01-10.93
		c10.15-2.73,11.96-4.98,15.18-4.98"/>
	<path class="st58" d="M694.29,536.76c11.94-3.88,27.08-8.84,31.54-9.98c12.42-3.17,16.1-4.25,29.08-7.18
		c12.85-2.9,23.29-7.95,33.39-8.96"/>
	<path class="st58" d="M690.21,532.83c4.61-1.45,7.56-2.47,16.36-5.18c14.34-4.42,20.41-6.42,27.12-8.86
		c7.09-2.58,14.4-4.37,24.3-6.48c8.42-1.79,16.66-5.33,23.53-5.33"/>
	<path class="st58" d="M820.69,407.43c2,6.26,0.72,9.23,0,13.37c-0.74,4.22-1.73,8.18-2.24,9.37c-2.67,6.26-2.29,7.7-10.65,27.01
		c-5.02,11.59-3.58,14.04-10.71,29.43c-4.57,9.86-6.59,18.85-8.8,24.03"/>
	<path class="st58" d="M815.37,411.61c0.36,6.12-2.34,8.58-3.59,12.67c-2.69,8.79-6.56,19.7-8.73,24.93
		c-4.87,11.73-9.29,22.7-11.59,29.52c-2.85,8.44-6.82,14.82-9.93,28.25"/>
	<g>
		<path class="st61" d="M770.67,504.32c1.4-0.63,2.86-0.75,4.3-0.66c1.45,0.07,2.77,0.74,4.08,1.27c1.31,0.52,2.57,1.14,3.79,1.79
			c0.61,0.31,1.31,0.77,1.78,1.3c0.48,0.51,0.92,0.96,1.51,1.31l-0.1,0.22c-0.68-0.17-1.34-0.57-1.89-0.96
			c-0.57-0.38-1.09-0.57-1.76-0.75c-1.32-0.38-2.62-0.76-3.92-1.07c-1.31-0.31-2.65-0.33-3.9-0.73c-1.27-0.39-2.54-0.78-3.88-1.49
			L770.67,504.32z"/>
	</g>
	<path class="st16" d="M792.95,557.05c1.82-0.05,7.11,0.82,8.33,0.6c-0.04-0.11,0.81-1.87,0.45-5.17c-0.1-0.88-0.44-2.44-0.89-2.85
		c0,0-1.93-0.25-4.02-0.6c-1.68-0.28-8.73-0.47-10.43-0.48c-11.08-0.04-17.02,1.36-30.52,3.5c-1.96,0.31-10.18,1.03-11.77,1.03
		c-2.19,0.01-8.28,0.33-8.28,0.33c-0.87,2.58-1.47,4.97,0.31,8.38c1.68,0.34,2.82-0.07,4.85-0.12c10.14-0.25,16.12-1.03,28.16-2.75
		C781.54,557.16,787.06,557.19,792.95,557.05z"/>
	<path class="st23" d="M679.81,537.7c-3.76,1.59-9.11,3.37-12.77,4.87c-4.68,1.91-13.47,5.1-24.71,9.44c0,0,1.61,1.47,3.44,2.38
		c2.7,1.34,5.84,2.31,7.29,2.25c4.47-0.17,12.34-4.07,17.5-7.25c1.59-0.98,8.38-4.52,11.32-4.48"/>
	<g>
		<path class="st61" d="M760.81,506.72c1.45-0.88,3.02-1.58,4.69-2.07c1.67-0.5,3.45-0.63,5.12-0.72c0.84-0.05,1.66-0.07,2.47-0.14
			l0.15-0.01l0.06-0.01c0.04,0,0.07-0.03,0.11-0.03c0.07-0.04,0.15-0.08,0.23-0.15c0.17-0.13,0.37-0.36,0.55-0.63
			c0.36-0.55,0.66-1.26,0.9-2c0.25-0.74,0.48-1.51,0.68-2.29c0.75-3.19,1.59-6.55,2.75-9.72c1.15-3.2,2.65-6.22,4.18-9.22
			c-0.73,3.31-1.79,6.49-2.54,9.71c-0.41,1.61-0.74,3.23-1.09,4.85c-0.36,1.62-0.6,3.24-0.99,4.93c-0.39,1.68-0.83,3.38-1.95,5.06
			c-0.3,0.41-0.64,0.84-1.16,1.19c-0.25,0.17-0.56,0.32-0.88,0.41c-0.17,0.04-0.33,0.09-0.5,0.09l-0.25,0.02l-0.16,0
			c-0.86,0-1.71-0.02-2.55-0.07c-1.68-0.1-3.27-0.19-4.89-0.03C764.1,506.03,762.47,506.39,760.81,506.72z"/>
	</g>
	<path class="st7" d="M681.5,899.59c0.62,1.91,0.72,3.43,0.89,5.43c0.6,7.24,0.36,13.19,0.36,20.45l-15.61-0.02l0-6.24
		c0,0-3.59,1.15-5.61,4.78c-1.39,2.51-19.27,1.47-26.33,1.47c-4.44,0-9.52-1.83-13.93-3.23c-4.82-1.53-4.61-3.57-1.82-7.43
		c2.24-3.1,9.32-5.82,13.15-5.86c6.63-0.07,8.76-2.54,12.07-5.29c4.03-3.36,4.81-5.64,8.85-8.6c0,0,6.3,3.37,6.82,3.37L681.5,899.59
		z"/>
	<g>
		<path class="st61" d="M689.25,435.66c-0.74,0.39-1.06,1.06-1.38,1.72c-0.32,0.66-0.55,1.38-0.8,2.08
			c-0.23,0.71-0.44,1.43-0.59,2.12c-0.12,0.57-0.25,1.57-0.49,2.31c-0.44,1.49-0.72,2.84-0.92,4.39c-0.24,1.52-0.38,3.1-0.74,4.72
			c-0.61-1.54-0.95-3.12-1.11-4.76c-0.07-0.82-0.08-1.66-0.01-2.5c0.07-0.84,0.25-1.71,0.45-2.46l0.27-1.08
			c0.05-0.29,0.16-0.82,0.3-1.23c0.27-0.83,0.62-1.6,1.06-2.33c0.43-0.73,0.96-1.41,1.6-2.01c0.33-0.29,0.68-0.56,1.09-0.76
			C688.37,435.67,688.84,435.55,689.25,435.66z"/>
	</g>
	<g>
		<g>
			<g>
				<path class="st62" d="M682.77,920.96c-2.39,0.01-4.52,0.03-6.34,0.05c-3.37,0.04-6.41,0.09-9.29,0.13l0,4.32l15.61,0.02
					C682.75,923.92,682.76,922.42,682.77,920.96z"/>
			</g>
			<g>
				<path class="st62" d="M661.53,924c0.66-1.19,1.49-2.11,2.31-2.81c-6.82,0.08-15.62,0.9-23.62,0.45
					c-5.46-0.31-10.05-0.67-15.6-2.58c-2.16-0.74-4.3-1.92-6.27-2.56c-1.62,2.8-1.14,4.46,2.92,5.75c4.41,1.4,9.49,3.23,13.93,3.23
					C642.26,925.48,660.13,926.51,661.53,924z"/>
			</g>
		</g>
	</g>
	<g>
		<path class="st62" d="M775.9,921.27c0.02,1.76,0.05,4.42,0.05,4.42h15.24c0.01,0,0.04-2.29,0.06-4.33
			C787.6,921.33,781.72,921.29,775.9,921.27z"/>
		<path class="st62" d="M742.53,925.46c8.16,0.57,12.79,0.56,12.79,0.56c2.21-0.1,4.43-0.19,6.64-0.29c1.49-0.07,2.99-0.13,4.48-0.2
			c1.74-0.08,2.41-0.42,3.57-1.84c0.84-1.04,1.88-1.79,3-2.44c-7.16-0.03-13.63,0.77-14.89,0.78c-7,0.1-9.82-0.5-15.18-0.82
			c-5.44-0.33-8.07-0.89-10.45-1.67c-2.19-0.72-3.99-1.58-5.38-2.34c-0.64,1.28-0.66,2.58,0.61,3.84
			C731.71,925.03,738.07,925.15,742.53,925.46z"/>
	</g>
	<g>
		<g>
			<path class="st10" d="M894.74,657.37c-10.32,10.11-14.14,26.58-12.45,40.59c1.41,11.67,7.3,22.02,13.45,31.81
				c6.68,10.64,13.41,21.23,19.74,32.09c9.78,16.8,18.44,34.43,22.99,53.42c6.05,25.24,4.72,52.23,12.63,76.88
				c3.31,10.31-4.09,9.89,2.98,17.81c7.17,8.03,18.95-12.36,28.44-7.82c3.57,1.71,14.89-14.26,12.47-19.82
				c-15.41-35.44-4.81-37.16-9.62-67.35c-3.72-23.37-9.76-46.97-21.69-67.6c-11.34-19.61-30.11-31.59-42.37-50.31
				C919.23,693.9,896.38,655.76,894.74,657.37z"/>
		</g>
		<g>
			<path class="st10" d="M954.6,825.58c-4.56-1.99-7.89-28.99-6.76-45.6c1.52-22.36,0.07-64.21,27.3-89.23
				c11.67-10.72,21.15-17.67,43.58-23.49c4.4-1.14,35.67-3.39,37.2,0.23c1.03,2.44-6.42,7.13-16.2,14.67
				c-13.68,10.55-21.39,22.74-25.59,38.1c-3.28,12.02-0.91,20.13-9.74,44.73c-7.41,20.64-11.66,27.33-23.44,42.59
				C971.89,819.32,956.79,826.54,954.6,825.58z"/>
		</g>
		<g>
			<path class="st10" d="M988.41,804.36c1.27,5.06,1.64,9.69,1.86,14.23c0.18,4.53,0.13,8.94-0.13,13.34
				c-0.26,4.4-0.71,8.79-1.4,13.27c-0.75,4.49-1.64,9.04-3.46,13.92l-0.69,0.09c-0.37-2.28-0.68-4.57-0.94-6.87
				c-0.23-2.3-0.39-4.61-0.5-6.92c-0.22-4.62-0.22-9.26,0-13.89c0.3-4.62,0.82-9.23,1.57-13.8c0.38-2.28,0.8-4.56,1.29-6.82
				c0.52-2.26,1.09-4.5,1.72-6.72L988.41,804.36z"/>
		</g>
		<g>
			<path class="st10" d="M948.23,776.66c1.01,0.5,1.97,1.07,2.92,1.66c0.93,0.61,1.85,1.25,2.76,1.9c1.74,1.38,3.49,2.8,5.08,4.39
				c3.19,3.15,6.02,6.69,8.44,10.49c2.41,3.93,4.33,8.24,5.67,12.63c0.68,2.2,1.28,4.41,1.7,6.65c0.47,2.23,0.81,4.48,1.04,6.72
				c0.98,8.99,0.37,17.93-1.27,26.53c-1.67,8.62-4.5,16.87-8.19,24.75l-0.69-0.1c1.28-8.4,2.75-16.72,3.45-25.14
				c0.7-8.4,0.81-16.88-0.21-25.24c-1-8.33-2.99-16.62-6.82-24.1c-1.88-3.76-4.05-7.38-6.46-10.83c-2.4-3.46-5.03-6.76-7.92-9.84
				L948.23,776.66z"/>
		</g>
		<g>
			<path class="st10" d="M958.37,828.39c1.04-0.83,2.07-1.59,3.11-2.31c1.03-0.75,2.07-1.44,3.12-2.12
				c2.07-1.43,4.34-2.67,6.69-3.79c1.18-0.52,2.36-1.07,3.56-1.51c1.22-0.45,2.33-0.9,3.65-1.28c1.39-0.39,2.83-0.75,4.32-0.91
				c1.49-0.18,3.02-0.3,4.58-0.19c3.1,0.14,6.27,0.9,9.16,2.25c2.88,1.37,5.48,3.24,7.59,5.51c1.07,1.12,2.03,2.31,2.87,3.62
				c0.42,0.65,0.82,1.32,1.21,2.04c0.2,0.38,0.38,0.73,0.59,1.23l0.19,0.45l0.12,0.3l0.23,0.6c1.05,3.11,1.38,5.78,1.67,8.44
				c0.46,5.27,0.4,10.28,0.15,15.28c-0.11,2.49-0.3,4.97-0.53,7.44c-0.21,2.47-0.47,4.93-0.78,7.38c-0.57,4.9-1.39,9.77-2.19,14.62
				l-1.4,7.25c-0.5,2.41-1.04,4.82-1.57,7.2l-0.7-0.03c0.7-9.76,1.4-19.47,1.74-29.22c0.18-4.87,0.29-9.74,0.23-14.61
				c-0.07-4.86-0.25-9.73-0.9-14.53c-0.34-2.39-0.78-4.78-1.61-6.98c-0.38-1.07-1.06-2.04-1.76-3c-0.71-0.95-1.5-1.84-2.34-2.67
				c-3.39-3.31-7.87-5.45-12.59-5.88c-4.73-0.51-9.49,0.87-14.19,2.01c-2.35,0.61-4.65,1.37-6.99,2.07
				c-2.34,0.72-4.69,1.39-7.07,1.98L958.37,828.39z"/>
		</g>
		<g>
			<path class="st10" d="M783.41,854c1.24,0.77,6.18-11.3,20.82-20.2c6.5-3.95,14.08-6.77,42.08-10.06
				c29.88-3.5,29.12-1.21,41.95-3.95c11.64-2.49,29.22-6.25,45.47-20c23.13-19.58,30.44-48.31,28.59-49.38
				c-0.88-0.51-3.61,5.51-10.17,10.75c-14.4,11.51-33.46,8.2-45.83,7.34c-30.89-2.16-63.14,7.89-82.6,21.25
				C791.24,812.06,781.23,852.65,783.41,854z"/>
		</g>
		<g>
			<path class="st10" d="M940.56,849.83c3.97-0.6,7.64-1.09,11.15-2.01c3.51-0.84,6.86-1.91,10.17-3.1
				c6.61-2.4,13.13-5.35,19.83-8.33c3.37-1.53,6.67-2.97,9.9-4.55c0.8-0.42,1.62-0.79,2.43-1.19l2.4-1.24
				c1.62-0.81,3.19-1.7,4.79-2.55c3.17-1.77,6.31-3.63,9.48-5.62c1.62-0.96,3.13-2.07,4.78-3.07c1.6-1.05,3.23-2.11,4.94-3.12
				l0.52,0.47c-2.5,2.85-5.07,5.67-7.82,8.3c-2.75,2.64-5.69,5.08-8.76,7.34c-3.07,2.26-6.28,4.34-9.58,6.24
				c-3.3,1.9-6.71,3.61-10.13,5.26c-6.88,3.23-14.02,6.06-21.49,7.72c-3.73,0.83-7.55,1.34-11.38,1.39
				c-3.83,0.04-7.66-0.41-11.38-1.27L940.56,849.83z"/>
		</g>
		<g>
			<path class="st10" d="M1018.99,795.45c-7.6,7.05-15.06,14.37-23.36,20.33c-17.6,12.66-38.95,15.51-60.17,17.46
				c-10.53,0.97-21.12,1.76-31.45,3.79c-9.71,1.91-18.65,6.75-29.43,6.39c-4.35-0.14,7.68-23.79,9.31-26.52
				c6.34-10.64,16.46-17.82,27.03-22.54c13.81-6.18,28.95-8.82,43.2-13.91c25.49-9.11,36.49-29.41,61.46-39.86
				c14.52-6.08,27.87-13.75,44.09-12.44c16.92,1.37,44.05,17.75,59.56,25.7c1.9,0.97,21.04,10.9,20.28,15.31
				c-1.06,6.17-33.99-0.35-38.31-0.76c-18.45-1.75-37.4-1.65-53.94,6.14C1036.68,779.53,1027.75,787.32,1018.99,795.45z"/>
		</g>
		<g>
			<path class="st10" d="M961.71,805.51c4.08,3.83,6.84,8.44,8.94,13.29c2.05,4.86,3.36,10.01,3.92,15.25
				c0.56,5.23,0.4,10.54-0.56,15.73c-1,5.18-2.7,10.28-5.85,14.9l-0.69-0.1c0.29-2.47,0.51-4.96,0.65-7.44
				c0.17-2.48,0.28-4.97,0.3-7.45c0.04-4.97-0.23-9.95-0.81-14.88c-0.5-4.94-1.31-9.86-2.42-14.7c-0.56-2.42-1.19-4.83-1.89-7.22
				c-0.67-2.4-1.42-4.77-2.24-7.13L961.71,805.51z"/>
		</g>
		<g>
			<g>
				<path class="st18" d="M886.45,861.7c10.24,31.3,31.42,55.08,38.01,61.96c1.24,1.3,2.94,2.03,4.72,2.03h52.4
					c1.78,0,3.47-0.73,4.72-2.03c6.59-6.88,27.77-30.66,38.01-61.96l-107.48-20.59L886.45,861.7z"/>
			</g>
		</g>
		<path class="st17" d="M886.45,861.7L886.45,861.7c21.74-8.78,45.93-9.38,68.08-1.68h0c18.33,6.37,38.02,7.79,57.08,4.12
			l12.69-2.44c3.44-10.52,5.65-21.89,5.65-33.75v0H880.8v0C880.8,839.82,883.01,851.18,886.45,861.7z"/>
		<g>
			<path class="st63" d="M797.22,831.1c4.48-5.24,9.59-9.96,15.15-14.08c5.56-4.13,11.56-7.71,17.92-10.48
				c3.19-1.36,6.46-2.53,9.76-3.56c3.31-1.02,6.65-1.88,9.98-2.72c3.34-0.84,6.69-1.61,10.04-2.38c3.35-0.75,6.68-1.58,10.05-2.31
				c6.71-1.54,13.57-2.61,20.43-3.24c6.87-0.64,13.59-1.17,20.04-2.96c13.02-3.43,25.15-9.96,36.02-18.31l0.2,0.22
				c-9.65,9.81-21.89,17.36-35.39,21.17c-3.38,0.92-6.86,1.58-10.33,1.93c-3.47,0.36-6.91,0.52-10.32,0.76
				c-6.81,0.45-13.59,1.07-20.36,2.04c-6.76,1.01-13.55,2.15-20.13,4.01c-3.29,0.93-6.52,2.06-9.67,3.35
				c-3.16,1.28-6.24,2.71-9.27,4.25c-3.03,1.52-6.03,3.11-8.98,4.77c-2.95,1.68-5.83,3.47-8.65,5.35
				c-5.65,3.77-11.05,7.94-16.28,12.4L797.22,831.1z"/>
		</g>
		<g>
			<path class="st63" d="M893.73,688.71c2.27,3.9,4.25,7.97,6.66,11.7c2.43,3.73,5.17,7.28,7.88,10.86
				c5.46,7.14,10.98,14.25,16.28,21.52l7.89,10.96l3.95,5.48l4.03,5.42l8.14,10.8c2.63,3.64,5.42,7.31,7.28,11.51
				c4,8.11,7.45,16.49,10.48,25c3.03,8.52,5.78,17.14,8.09,25.87c2.29,8.74,4.29,17.55,5.94,26.43c1.62,8.9,3.03,17.76,3.87,26.82
				l-0.3-0.03c-3.65-17.57-7.82-35.11-12.6-52.39c-2.38-8.65-4.87-17.27-7.68-25.79c-2.85-8.5-5.88-16.95-9.33-25.24l-0.65-1.55
				l-0.7-1.49c-0.51-0.98-1.02-1.96-1.61-2.91c-1.12-1.93-2.37-3.79-3.65-5.64c-2.56-3.69-5.29-7.27-8.06-10.81
				c-1.38-1.78-2.81-3.52-4.21-5.28l-4.3-5.21l-8.56-10.46c-5.62-7.05-10.98-14.28-16.21-21.63c-1.31-1.84-2.59-3.7-3.83-5.6
				c-1.25-1.89-2.46-3.82-3.55-5.82c-1.11-2-2.04-4.08-2.92-6.15c-0.89-2.08-1.76-4.15-2.61-6.24L893.73,688.71z"/>
		</g>
		<g>
			<path class="st63" d="M1037.39,673.28c-6.52,2.34-12.76,5.23-18.64,8.7c-2.93,1.75-5.77,3.63-8.5,5.67
				c-2.71,2.06-5.4,4.19-7.96,6.43c-5.14,4.45-9.92,9.48-13.57,15.32c-1.85,2.9-3.29,6.01-4.32,9.29
				c-1.08,3.26-1.73,6.65-2.38,10.03c-1.19,6.79-2.17,13.64-3.31,20.46c-1.12,6.81-2.01,13.64-3.11,20.49
				c-1.12,6.84-2.54,13.76-4.86,20.36c-2.3,6.6-5.13,12.98-8.56,19.03l-0.27-0.13c2.51-6.45,4.79-12.97,6.57-19.59
				c1.82-6.61,2.99-13.33,3.96-20.16c0.53-3.41,1.02-6.84,1.62-10.25c0.59-3.42,1.21-6.83,1.87-10.24
				c1.32-6.8,2.72-13.59,4.49-20.32c1.76-6.7,3.81-13.49,7.47-19.47c1.76-3.01,3.66-5.94,5.77-8.74c2.12-2.78,4.43-5.44,6.93-7.91
				c10.11-9.7,23.04-16.66,36.72-19.25L1037.39,673.28z"/>
		</g>
		<g>
			<path class="st10" d="M774.45,783.14c1.48,3.4,15.62,2.14,30.7-3.08c21.72-7.53,22.77-11.22,35.98-15.37
				c4.83-1.52,38.56-6.48,57.42,12.05c13.73,13.49,15.32,25.3,30.81,46.54c7.1,9.74,23.83,21.39,24.95,19.82
				c5.9-8.22,14.65-38.61,10.56-58.51c-1.54-7.51-12.46-41.52-51.09-58.96c-22.42-10.12-48.16-9.45-67.29-0.65
				c-7.69,3.54-16.72,6.29-30.54,18.7c-13.33,11.96-15.51,16.42-23.24,23.53C779.48,779.4,773.71,781.44,774.45,783.14z"/>
		</g>
		<g>
			<path class="st63" d="M787.45,778.98c8.39-4.68,16.6-9.63,24.52-14.96c3.96-2.67,7.83-5.45,11.59-8.38l5.65-4.44
				c1.89-1.49,3.85-2.95,5.94-4.27c8.51-5.22,18.48-7.03,28.12-6.81c9.7,0.22,19.17,2.46,28.46,4.99
				c9.32,2.55,18.39,6.43,26.51,11.86c8.1,5.43,15.37,12.24,20.95,20.34c5.51,8.13,9.3,17.37,11.25,26.91
				c1.95,9.54,2.25,19.35,1.09,28.9l-0.3-0.02c0.17-9.6-0.71-19.17-3.1-28.35c-2.35-9.17-6.19-17.93-11.58-25.63
				c-1.36-1.91-2.74-3.81-4.28-5.58c-0.73-0.91-1.56-1.76-2.35-2.63l-1.19-1.3l-1.25-1.24c-3.32-3.33-6.95-6.37-10.82-9.07
				c-7.75-5.4-16.37-9.56-25.4-12.63c-4.54-1.48-9.12-2.92-13.79-3.92c-4.67-1.02-9.43-1.64-14.19-1.65
				c-4.76,0-9.52,0.66-14.05,2.01c-4.54,1.34-8.87,3.26-12.69,5.92c-3.84,2.65-7.45,5.85-11.33,8.74
				c-3.85,2.93-7.84,5.68-11.95,8.22c-8.19,5.11-16.78,9.57-25.66,13.28L787.45,778.98z"/>
		</g>
		<g>
			<path class="st63" d="M1091.74,754.02c-7.54-1.91-15.11-3.4-22.74-4.36c-3.81-0.48-7.65-0.81-11.46-1.01
				c-1.89-0.09-3.76-0.07-5.63,0.05c-1.86,0.19-3.73,0.4-5.58,0.82c-7.41,1.63-14.52,5.03-21,9.21c-1.64,1.02-3.21,2.17-4.79,3.27
				c-1.56,1.14-3.1,2.32-4.62,3.51c-3.04,2.4-5.91,4.95-8.62,7.7c-2.68,2.79-5.7,5.46-8.86,7.78c-3.16,2.34-6.43,4.47-9.72,6.56
				c-6.6,4.17-13.23,8.16-20.01,11.99c-3.38,1.93-6.8,3.8-10.28,5.56c-3.46,1.8-7.01,3.45-10.61,4.99
				c-3.61,1.5-7.28,2.88-11.01,4.04c-3.74,1.14-7.52,2.11-11.34,2.86l-0.07-0.29c7.39-2.4,14.59-5.2,21.48-8.67
				c6.93-3.38,13.59-7.29,20.27-11.2l20.02-11.8c3.32-1.97,6.58-4.04,9.76-6.18c3.21-2.12,6.09-4.53,9.01-7.11
				c2.94-2.58,6.04-5,9.23-7.24l4.8-3.32c1.64-1.05,3.21-2.21,4.88-3.21l2.46-1.58l2.51-1.5c0.82-0.52,1.68-1,2.53-1.47
				c0.86-0.47,1.69-0.98,2.57-1.42c3.44-1.86,7.06-3.48,10.88-4.59c1.9-0.58,3.87-0.99,5.87-1.24c2-0.23,4.01-0.29,6-0.2
				c1.98,0.07,3.92,0.27,5.87,0.47c1.95,0.22,3.89,0.46,5.82,0.8c7.73,1.28,15.31,3.43,22.48,6.5L1091.74,754.02z"/>
		</g>
		<g>
			<path class="st10" d="M949.12,809.73c4.09-10.28,11.65-27.5,32.19-39.39c23.13-13.38,58.49-11.38,79.04,6.22
				c7.55,6.47,13.15,14.89,20.02,22.08c9.33,9.78,21.08,17.2,33.87,21.55c4.8,1.63,31.79,4.43,31.92,10.39
				c0.13,6.03-21.07,10.79-24.58,11.59c-19.62,4.41-40.24,4.01-57.03-8.01c-8.22-5.88-15.69-12.95-24.74-17.47
				c-14.75-7.36-33.02-6.97-47.61,0.69c-6.68,3.51-12.58,8.4-19.38,11.66c-13.08,6.28-6.52,1.35-19.91-2.5
				C959.19,821.28,946.07,817.42,949.12,809.73z"/>
		</g>
		<g>
			<path class="st63" d="M1125.19,832.31c-7.9,1.74-16.32,1.46-24.23-0.8c-3.96-1.14-7.75-2.78-11.35-4.71
				c-3.62-1.91-7.04-4.14-10.3-6.56c-3.25-2.44-6.36-5.09-9.22-8c-2.88-2.89-5.36-6.12-7.94-9.17
				c-5.04-6.25-12.23-10.36-19.76-12.71c-3.81-1.1-7.71-1.82-11.64-2.23c-3.93-0.36-7.89-0.49-11.83-0.24
				c-1.97,0.05-3.94,0.33-5.9,0.51c-0.98,0.13-1.95,0.3-2.93,0.45l-1.46,0.23l-1.45,0.3c-3.88,0.74-7.68,1.8-11.41,3.07
				c-7.47,2.49-14.45,6.3-20.54,11.31c-6.11,5-11.24,11.22-15.29,18.16l-0.27-0.13c3.17-7.43,7.99-14.22,14-19.81
				c6.01-5.58,13.3-9.82,21.04-12.55c0.95-0.39,1.95-0.65,2.93-0.96c0.98-0.29,1.96-0.62,2.96-0.85l2.98-0.74
				c1-0.22,2.01-0.38,3.02-0.58l1.51-0.28l1.52-0.2c1.02-0.13,2.03-0.28,3.05-0.39c2.04-0.14,4.08-0.38,6.13-0.38
				c8.18-0.29,16.44,0.91,24.11,3.74c0.96,0.36,1.89,0.79,2.83,1.18l1.41,0.6l1.35,0.71c0.9,0.48,1.8,0.95,2.69,1.45l2.57,1.65
				c3.42,2.19,6.45,5,9.12,8.03c1.36,1.5,2.68,3.01,4.05,4.46c1.4,1.43,2.81,2.84,4.31,4.13c2.98,2.63,6.19,4.98,9.51,7.17
				c6.59,4.44,13.44,8.57,20.89,11.09c7.46,2.46,15.49,3.38,23.5,2.72L1125.19,832.31z"/>
		</g>
		<g>
			<path class="st10" d="M849.19,869.17c-0.78-3.83-3.29-15.96-3.37-19.25c-0.7-28.38,12.43-54.79,44.23-61.05
				c13.52-2.66,31.8-3.79,45.07,0c15.04,4.29,27.22,11.7,39.24,23.51c4,3.92-22.24-6.1-22.44,12.91c-0.02,1.65,9.51,14.19,2.8,12.79
				c-20.37-4.23-25.55-9.85-40.43-5.27c-7.51,2.32-15,9.08-16.34,23.32c-1.64,17.38-15.47,29.56-32.99,49.44
				C856.74,896.65,851.51,880.54,849.19,869.17z"/>
		</g>
		<g>
			<path class="st63" d="M959.66,809.91c-5.16-4.14-11.28-6.62-17.53-8.29c-6.28-1.67-12.77-2.48-19.27-2.9
				c-3.26-0.21-6.49-0.32-9.74-0.09c-3.24,0.22-6.48,0.72-9.59,1.73c-3.11,0.98-6.08,2.42-8.83,4.19c-2.75,1.77-5.24,3.92-7.58,6.22
				c-1.17,1.13-2.35,2.33-3.36,3.53c-1,1.24-1.92,2.54-2.69,3.93c-1.6,2.75-2.68,5.78-3.51,8.87c-0.41,1.55-0.74,3.13-1.02,4.73
				c-0.28,1.62-0.54,3.21-0.68,4.78c-0.3,3.17-0.18,6.29,0.25,9.53c0.38,3.23,0.8,6.64,0.77,10.04c-0.03,3.4-0.37,6.77-1.01,10.08
				c-1.29,6.62-3.74,12.95-7.06,18.7l-0.27-0.13c2.39-6.16,4.2-12.5,4.96-18.94c0.39-3.22,0.56-6.46,0.44-9.66
				c-0.07-1.6-0.18-3.21-0.36-4.81l-0.64-4.89c-0.42-3.31-0.59-6.84-0.12-10.24c0.2-1.71,0.54-3.38,0.87-5
				c0.34-1.64,0.74-3.3,1.23-4.93c0.97-3.26,2.37-6.43,4.24-9.31c0.93-1.44,2.06-2.75,3.24-3.99c1.24-1.22,2.47-2.29,3.74-3.38
				c1.27-1.08,2.58-2.12,3.93-3.11c0.67-0.5,1.36-0.97,2.04-1.46l2.1-1.36c2.84-1.76,5.86-3.23,8.99-4.39
				c6.26-2.39,13.08-3.31,19.79-3.2c3.35,0.07,6.7,0.4,10.01,0.94c3.31,0.53,6.59,1.3,9.8,2.33c3.2,1.03,6.32,2.35,9.24,4.03
				c1.47,0.83,2.85,1.8,4.17,2.83c1.32,1.03,2.57,2.16,3.68,3.41L959.66,809.91z"/>
		</g>
		<g>
			<path class="st10" d="M1068.38,906.16c-16.44-2.04-50.83-9.78-63.42-41.36c-8.6-21.57-31.39-19.44-48.75-10.71
				c-10.22,5.14-15.98,24.75-19.94,23.63c-3.11-0.88-0.2-34.21,3.99-41.34c14.58-24.8,32.09-32.72,40.7-35.83
				c21.84-7.89,52.65-0.03,70.94,22.21c14.53,17.67,35.79,82.51,49.21,88.75"/>
		</g>
		<g>
			<path class="st63" d="M953.84,840.28c2.26-2.59,4.81-4.94,7.56-7.05c2.74-2.11,5.71-3.95,8.83-5.47
				c6.25-3.06,13.06-4.98,19.98-5.75c3.46-0.41,6.96-0.55,10.44-0.41c3.49,0.13,6.97,0.51,10.41,1.23c1.71,0.37,3.44,0.83,5.11,1.43
				c1.66,0.64,3.27,1.38,4.79,2.27c3.06,1.76,5.84,3.93,8.35,6.32c2.52,2.38,4.89,4.89,7.1,7.54c2.22,2.64,4.36,5.36,6.37,8.16
				c2.03,2.76,3.99,5.64,5.7,8.69c1.71,3.04,3.08,6.28,4.43,9.41c0.68,1.56,1.38,3.08,2.09,4.58c0.74,1.49,1.54,2.94,2.4,4.37
				c0.84,1.43,1.77,2.83,2.74,4.2c0.95,1.38,1.95,2.74,3,4.05c2.08,2.65,4.31,5.19,6.67,7.63c2.37,2.42,4.87,4.74,7.47,6.99
				l-0.17,0.24c-2.98-1.73-5.83-3.71-8.5-5.92c-2.69-2.19-5.22-4.6-7.54-7.19c-2.34-2.59-4.46-5.37-6.36-8.34
				c-1.89-2.97-3.4-6.22-4.62-9.44c-1.24-3.22-2.44-6.34-3.94-9.35c-1.45-3.03-3.17-5.94-4.87-8.92c-1.73-2.94-3.51-5.85-5.61-8.53
				c-2.1-2.67-4.43-5.18-7.1-7.28c-2.66-2.09-5.57-3.84-8.61-5.19c-3.06-1.32-6.16-2.41-9.43-3.08c-6.54-1.37-13.35-1.65-20.04-1.05
				c-6.7,0.6-13.32,2.22-19.52,4.88c-3.1,1.34-6.08,2.95-8.92,4.82c-2.83,1.88-5.48,4.03-7.97,6.37L953.84,840.28z"/>
		</g>
	</g>
	<g>
		<g>
			<path class="st6" d="M243.21,645.83c12.67,89.84,95.66,153.67,185.75,142.85c65.56-7.88,123.85-57.91,141.5-121.64
				c6.14-22.16,7.58-45.51,4.34-68.27c-12.79-89.83-95.87-153.54-185.94-142.59C295.75,467.49,230.12,552.97,243.21,645.83z
				 M290.21,638.01c-8.61-65.62,37.6-125.79,103.21-134.4c65.62-8.61,125.79,37.6,134.4,103.21c8.61,65.62-37.6,125.79-103.21,134.4
				C359,749.84,298.83,703.63,290.21,638.01z"/>
		</g>
	</g>
	<circle class="st64" cx="409.01" cy="622.41" r="128.97"/>
	<g class="st65">
		<path class="st6" d="M345.58,647.69c-3.41-1.37-6.39-3.31-8.92-5.8c-2.54-2.49-4.52-5.39-5.94-8.71
			c-1.42-3.32-2.13-6.92-2.13-10.81c0-3.89,0.7-7.49,2.1-10.81c1.4-3.32,3.37-6.21,5.9-8.68c2.54-2.46,5.51-4.38,8.92-5.76
			c3.41-1.37,7.13-2.06,11.16-2.06c4.03,0,7.75,0.69,11.16,2.06c3.41,1.38,6.39,3.3,8.92,5.76c2.54,2.47,4.5,5.36,5.9,8.68
			c1.4,3.32,2.1,6.92,2.1,10.81c0,3.89-0.71,7.49-2.13,10.81c-1.42,3.32-3.4,6.22-5.94,8.71c-2.54,2.49-5.51,4.42-8.92,5.8
			c-3.41,1.37-7.11,2.06-11.09,2.06C352.7,649.76,349,649.07,345.58,647.69z M365.39,637.56c2.58-1.49,4.62-3.54,6.12-6.15
			c1.49-2.61,2.24-5.62,2.24-9.03s-0.75-6.42-2.24-9.03c-1.49-2.61-3.53-4.65-6.12-6.12c-2.58-1.47-5.49-2.2-8.71-2.2
			c-3.22,0-6.13,0.74-8.71,2.2c-2.58,1.47-4.62,3.51-6.12,6.12c-1.49,2.61-2.24,5.62-2.24,9.03s0.75,6.42,2.24,9.03
			c1.49,2.61,3.53,4.66,6.12,6.15c2.58,1.49,5.49,2.24,8.71,2.24C359.9,639.8,362.8,639.05,365.39,637.56z"/>
		<path class="st6" d="M407.2,647.69c-3.25-1.37-6.08-3.29-8.5-5.76c-2.42-2.46-4.3-5.36-5.65-8.68c-1.35-3.32-2.03-6.94-2.03-10.88
			c0-3.93,0.66-7.57,1.99-10.92c1.33-3.34,3.2-6.23,5.62-8.68c2.42-2.44,5.25-4.34,8.5-5.69c3.25-1.35,6.79-2.03,10.63-2.03
			c3.84,0,7.29,0.64,10.35,1.92c3.06,1.28,5.65,2.99,7.79,5.12c2.13,2.13,3.65,4.5,4.55,7.11l-9.74,4.69
			c-0.9-2.56-2.48-4.68-4.73-6.36c-2.25-1.68-4.99-2.52-8.21-2.52c-3.13,0-5.88,0.74-8.25,2.2c-2.37,1.47-4.21,3.5-5.51,6.08
			c-1.3,2.58-1.96,5.61-1.96,9.07c0,3.46,0.65,6.5,1.96,9.1c1.3,2.61,3.14,4.65,5.51,6.12c2.37,1.47,5.12,2.2,8.25,2.2
			c3.22,0,5.96-0.84,8.21-2.52c2.25-1.68,3.83-3.8,4.73-6.36l9.74,4.69c-0.9,2.61-2.42,4.98-4.55,7.11
			c-2.13,2.13-4.73,3.84-7.79,5.12c-3.06,1.28-6.51,1.92-10.35,1.92C413.97,649.76,410.45,649.07,407.2,647.69z"/>
		<path class="st6" d="M447.48,595.92h20.27c3.65,0,6.89,0.64,9.71,1.92c2.82,1.28,5.04,3.18,6.65,5.69
			c1.61,2.51,2.42,5.62,2.42,9.32c0,3.6-0.83,6.67-2.49,9.21c-1.66,2.54-3.89,4.44-6.68,5.72l12.09,21.12h-12.37l-10.74-19.2h-7.82
			v19.2h-11.02V595.92z M467.82,620.1c2.32,0,4.18-0.66,5.58-1.99c1.4-1.33,2.1-3.08,2.1-5.26c0-2.23-0.7-4.01-2.1-5.33
			c-1.4-1.33-3.26-1.99-5.58-1.99h-9.32v14.58H467.82z"/>
	</g>
	<g>
		<g>
			<path class="st10" d="M701.85,547.75c-0.01,0.2-0.17,0.36-0.37,0.36c-7.16-0.14-14.35,2.14-21.45,1.35
				c-0.21-0.02-0.43-0.05-0.6-0.15c-0.18-0.11-0.27-0.29-0.39-0.45c-3.75-4.9-4.53-8.71-4.05-14.91c0.01-0.16,0.12-1.05,0.27-1.11
				c0.78-0.34,1.56-0.62,4.53-2.18c3.1-1.64,4.74-1.67,8.15-3.48c2.9-1.54,4.75-2.4,6.35-2.99c0.26-0.1,2.12-0.69,2.09-0.42
				c-0.14,1.47-0.34,3.54-0.3,3.87c0.31,2.6,0.2,4.84,0.77,7.4c0.59,2.67,1.28,5.32,2.09,7.95
				C699.55,544.97,701.96,545.67,701.85,547.75z"/>
		</g>
		<circle class="st7" cx="683.1" cy="538.18" r="1.75"/>
		<g>
			<path class="st11" d="M696.12,527.7c-0.08,0.6,0,1.41,0.09,2.11c0.11,0.72,0.25,1.43,0.4,2.15c0.32,1.42,0.68,2.84,1.11,4.22
				c0.46,1.38,0.9,2.75,1.28,4.15c0.39,1.4,0.79,2.8,1.12,4.28l-0.14,0.07c-0.99-1.16-1.76-2.47-2.38-3.84
				c-0.64-1.37-1.07-2.82-1.32-4.3c-0.28-1.48-0.51-2.95-0.61-4.45c-0.06-0.75-0.08-1.5-0.05-2.25c0.02-0.38,0.04-0.75,0.09-1.13
				c0.07-0.39,0.07-0.72,0.32-1.15L696.12,527.7z"/>
		</g>
	</g>
	<path class="st23" d="M665.76,546.52c-1.18-0.43-1.18-0.43-2.49-0.9c-1.66-0.6-2.24-0.85-3.15-1.46c-2.57-1.71-2.82-3.6-2.88-3.92
		c-0.02-0.08-0.3-1.51,0.48-2.08c0.71-0.52,2.04-0.25,2.65,0.25c1.93,1.61,4.46,3.27,7.69,3.75"/>
</g>
</svg>
